# Blender 3.6.1
# www.blender.org
mtllib normal_horizontal.mtl
o Hor._Screw_1
v -0.144828 0.001165 -0.974627
v -0.144129 0.002853 -0.974627
v -0.143017 0.004303 -0.974627
v -0.141567 0.005415 -0.974627
v -0.139879 0.006115 -0.974627
v -0.138067 0.006353 -0.974627
v -0.136255 0.006115 -0.974627
v -0.134567 0.005415 -0.974627
v -0.133117 0.004303 -0.974627
v -0.132005 0.002853 -0.974627
v -0.131305 0.001165 -0.974627
v -0.144828 0.000922 -0.973721
v -0.144129 0.002384 -0.972877
v -0.143017 0.003640 -0.972152
v -0.141567 0.004603 -0.971595
v -0.139879 0.005209 -0.971246
v -0.138067 0.005415 -0.971127
v -0.136255 0.005209 -0.971246
v -0.134567 0.004603 -0.971595
v -0.133117 0.003640 -0.972152
v -0.132005 0.002384 -0.972877
v -0.131305 0.000922 -0.973721
v -0.144828 0.000259 -0.973058
v -0.144129 0.001103 -0.971595
v -0.143017 0.001828 -0.970340
v -0.141567 0.002384 -0.969377
v -0.139879 0.002734 -0.968771
v -0.138067 0.002853 -0.968564
v -0.136255 0.002734 -0.968771
v -0.134567 0.002384 -0.969377
v -0.133117 0.001828 -0.970340
v -0.132005 0.001103 -0.971595
v -0.131305 0.000259 -0.973058
v -0.144828 -0.000647 -0.972815
v -0.144129 -0.000647 -0.971127
v -0.143017 -0.000647 -0.969677
v -0.141567 -0.000647 -0.968564
v -0.139879 -0.000647 -0.967865
v -0.138067 -0.000647 -0.967627
v -0.136255 -0.000647 -0.967865
v -0.134567 -0.000647 -0.968564
v -0.133117 -0.000647 -0.969677
v -0.132005 -0.000647 -0.971127
v -0.131305 -0.000647 -0.972815
v -0.144828 -0.001553 -0.973058
v -0.144129 -0.002397 -0.971595
v -0.143017 -0.003122 -0.970340
v -0.141567 -0.003678 -0.969377
v -0.139879 -0.004027 -0.968771
v -0.138067 -0.004147 -0.968564
v -0.136255 -0.004027 -0.968771
v -0.134567 -0.003678 -0.969377
v -0.133117 -0.003122 -0.970340
v -0.132005 -0.002397 -0.971595
v -0.131305 -0.001553 -0.973058
v -0.144828 -0.002216 -0.973721
v -0.144129 -0.003678 -0.972877
v -0.143017 -0.004933 -0.972152
v -0.141567 -0.005897 -0.971595
v -0.139879 -0.006502 -0.971246
v -0.138067 -0.006709 -0.971127
v -0.136255 -0.006502 -0.971246
v -0.134567 -0.005897 -0.971595
v -0.133117 -0.004933 -0.972152
v -0.132005 -0.003678 -0.972877
v -0.131305 -0.002216 -0.973721
v -0.145067 -0.000647 -0.974627
v -0.144828 -0.002458 -0.974627
v -0.144129 -0.004147 -0.974627
v -0.143017 -0.005597 -0.974627
v -0.141567 -0.006709 -0.974627
v -0.139879 -0.007408 -0.974627
v -0.138067 -0.007647 -0.974627
v -0.136255 -0.007408 -0.974627
v -0.134567 -0.006709 -0.974627
v -0.133117 -0.005597 -0.974627
v -0.132005 -0.004147 -0.974627
v -0.131305 -0.002458 -0.974627
v -0.131067 -0.000647 -0.974627
vn 0.2455 0.9364 0.2509
vn -0.0000 0.9659 0.2588
vn -0.0000 0.8660 0.5000
vn 0.2536 0.8377 0.4837
vn -0.4780 0.8484 0.2273
vn -0.6839 0.7047 0.1888
vn -0.6965 0.6215 0.3588
vn -0.4909 0.7545 0.4356
vn 0.9577 0.2781 0.0745
vn 0.8486 0.5111 0.1369
vn 0.8566 0.4468 0.2580
vn 0.9603 0.2415 0.1394
vn -0.9577 0.2781 0.0745
vn -0.9962 -0.0000 0.0874
vn -0.9603 0.2415 0.1394
vn 0.4780 0.8484 0.2273
vn 0.4909 0.7545 0.4356
vn -0.2455 0.9364 0.2509
vn -0.2536 0.8377 0.4837
vn 0.9962 -0.0000 0.0874
vn -0.8486 0.5111 0.1369
vn -0.8566 0.4468 0.2580
vn 0.6839 0.7047 0.1888
vn 0.6965 0.6215 0.3588
vn -0.2536 0.4837 0.8377
vn -0.0000 0.5000 0.8660
vn -0.8566 0.2580 0.4468
vn -0.6965 0.3588 0.6215
vn 0.6965 0.3588 0.6215
vn 0.8566 0.2580 0.4468
vn 0.2536 0.4837 0.8377
vn -0.4909 0.4356 0.7545
vn 0.9603 0.1394 0.2415
vn -0.9603 0.1394 0.2415
vn 0.4909 0.4356 0.7545
vn 0.2536 -0.0000 0.9673
vn 0.4909 -0.0000 0.8712
vn -0.4909 -0.0000 0.8712
vn -0.2536 -0.0000 0.9673
vn 0.9603 -0.0000 0.2789
vn -0.9603 -0.0000 0.2789
vn -0.8566 -0.0000 0.5159
vn 0.6965 -0.0000 0.7176
vn -0.0000 -0.0000 1.0000
vn -0.6965 -0.0000 0.7176
vn 0.8566 -0.0000 0.5159
vn -0.0000 -0.5000 0.8660
vn 0.2536 -0.4837 0.8377
vn -0.6965 -0.3588 0.6215
vn -0.4909 -0.4356 0.7545
vn 0.8566 -0.2580 0.4468
vn 0.9603 -0.1394 0.2415
vn -0.9603 -0.1394 0.2415
vn 0.4909 -0.4356 0.7545
vn -0.2536 -0.4837 0.8377
vn -0.8566 -0.2580 0.4468
vn 0.6965 -0.3588 0.6215
vn 0.4909 -0.7545 0.4356
vn 0.6965 -0.6215 0.3588
vn -0.2536 -0.8377 0.4837
vn -0.0000 -0.8660 0.5000
vn -0.8566 -0.4468 0.2580
vn -0.6965 -0.6215 0.3588
vn 0.8566 -0.4468 0.2580
vn 0.2536 -0.8377 0.4837
vn -0.4909 -0.7545 0.4356
vn 0.9603 -0.2415 0.1394
vn -0.9603 -0.2415 0.1394
vn -0.9577 -0.2781 0.0745
vn 0.2455 -0.9364 0.2509
vn 0.4780 -0.8484 0.2273
vn -0.4780 -0.8484 0.2273
vn -0.2455 -0.9364 0.2509
vn 0.9577 -0.2781 0.0745
vn -0.8486 -0.5111 0.1369
vn 0.6839 -0.7047 0.1888
vn -0.0000 -0.9659 0.2588
vn -0.6839 -0.7047 0.1888
vn 0.8486 -0.5111 0.1369
vt 0.304152 0.895236
vt 0.319894 0.894113
vt 0.321271 0.925067
vt 0.305483 0.925136
vt 0.147438 0.990031
vt 0.145219 0.979421
vt 0.166340 0.973920
vt 0.173307 0.983293
vt 0.075888 0.964269
vt 0.074319 0.978324
vt 0.059594 0.974132
vt 0.068266 0.962099
vt 0.142837 0.951101
vt 0.142837 0.935320
vt 0.150568 0.949087
vt 0.288877 0.897950
vt 0.290070 0.924757
vt 0.335028 0.894657
vt 0.348524 0.896830
vt 0.349717 0.923637
vt 0.336359 0.924556
vt 0.076701 0.948825
vt 0.143649 0.966143
vt 0.158584 0.962253
vt 0.275108 0.902069
vt 0.276082 0.923956
vt 0.072099 0.990031
vt 0.051275 0.984104
vt 0.335028 0.952774
vt 0.319894 0.954280
vt 0.169728 0.951324
vt 0.182100 0.958464
vt 0.036328 0.968335
vt 0.049025 0.962982
vt 0.304152 0.953353
vt 0.192609 0.964363
vt 0.062795 0.956327
vt 0.156336 0.943430
vt 0.288877 0.950056
vt 0.348524 0.948936
vt 0.275108 0.944613
vt 0.300517 0.972329
vt 0.285618 0.967069
vt 0.200538 0.968620
vt 0.200171 0.938313
vt 0.208972 0.939565
vt 0.060941 0.948500
vt 0.158596 0.935644
vt 0.174094 0.936283
vt 0.025570 0.972022
vt 0.019367 0.945832
vt 0.031263 0.946951
vt 0.331393 0.971749
vt 0.316130 0.973925
vt 0.188275 0.937194
vt 0.045443 0.947861
vt 0.442651 0.896290
vt 0.457914 0.894113
vt 0.454150 0.913758
vt 0.439016 0.915265
vt 0.183210 0.915809
vt 0.193968 0.912123
vt 0.049809 0.932821
vt 0.063201 0.940715
vt 0.156742 0.927817
vt 0.010565 0.944580
vt 0.019000 0.915524
vt 0.026929 0.919781
vt 0.473527 0.895710
vt 0.488426 0.900970
vt 0.485167 0.917983
vt 0.469891 0.914685
vt 0.170513 0.921163
vt 0.037438 0.925681
vt 0.046230 0.900851
vt 0.053197 0.910225
vt 0.468561 0.942903
vt 0.452772 0.942972
vt 0.159944 0.910012
vt 0.168263 0.900041
vt 0.060953 0.921892
vt 0.437685 0.943483
vt 0.498935 0.923426
vt 0.497961 0.944082
vt 0.483974 0.943282
vt 0.068970 0.935057
vt 0.151271 0.922045
vt 0.425519 0.919102
vt 0.424326 0.944402
vt 0.143649 0.919876
vt 0.439016 0.973382
vt 0.425519 0.971209
vt 0.485167 0.970089
vt 0.469891 0.972802
vt 0.076701 0.933044
vt 0.145219 0.905821
vt 0.072099 0.894113
vt 0.074319 0.904723
vt 0.454150 0.973926
vt 0.147438 0.894113
vt 0.075888 0.918002
vt 0.498935 0.965970
s 1
usemtl Shiny_metal_Horizontal_Texture
f 7/1/1 6/2/2 17/3/3 18/4/4
f 4/5/5 3/6/6 14/7/7 15/8/8
f 11/9/9 10/10/10 21/11/11 22/12/12
f 1/13/13 67/14/14 12/15/15
f 8/16/16 7/1/1 18/4/4 19/17/17
f 5/18/18 4/19/5 15/20/8 16/21/19
f 79/22/20 11/9/9 22/12/12
f 2/23/21 1/13/13 12/15/15 13/24/22
f 9/25/23 8/16/16 19/17/17 20/26/24
f 6/2/2 5/18/18 16/21/19 17/3/3
f 3/6/6 2/23/21 13/24/22 14/7/7
f 10/10/10 9/27/23 20/28/24 21/11/11
f 17/3/3 16/21/19 27/29/25 28/30/26
f 14/7/7 13/24/22 24/31/27 25/32/28
f 21/11/11 20/28/24 31/33/29 32/34/30
f 18/4/4 17/3/3 28/30/26 29/35/31
f 15/8/8 14/7/7 25/32/28 26/36/32
f 22/12/12 21/11/11 32/34/30 33/37/33
f 12/15/15 67/14/14 23/38/34
f 19/17/17 18/4/4 29/35/31 30/39/35
f 16/21/19 15/20/8 26/40/32 27/29/25
f 79/22/20 22/12/12 33/37/33
f 13/24/22 12/15/15 23/38/34 24/31/27
f 20/26/24 19/17/17 30/39/35 31/41/29
f 30/39/35 29/35/31 40/42/36 41/43/37
f 27/44/25 26/36/32 37/45/38 38/46/39
f 79/22/20 33/37/33 44/47/40
f 24/31/27 23/38/34 34/48/41 35/49/42
f 31/33/29 30/50/35 41/51/37 42/52/43
f 28/30/26 27/29/25 38/53/39 39/54/44
f 25/32/28 24/31/27 35/49/42 36/55/45
f 32/34/30 31/33/29 42/52/43 43/56/46
f 29/35/31 28/30/26 39/54/44 40/42/36
f 26/36/32 25/32/28 36/55/45 37/45/38
f 33/37/33 32/34/30 43/56/46 44/47/40
f 23/38/34 67/14/14 34/48/41
f 40/57/36 39/58/44 50/59/47 51/60/48
f 37/45/38 36/55/45 47/61/49 48/62/50
f 44/47/40 43/56/46 54/63/51 55/64/52
f 34/48/41 67/14/14 45/65/53
f 41/51/37 40/66/36 51/67/48 52/68/54
f 38/69/39 37/70/38 48/71/50 49/72/55
f 79/22/20 44/47/40 55/64/52
f 35/49/42 34/48/41 45/65/53 46/73/56
f 42/52/43 41/51/37 52/68/54 53/74/57
f 39/58/44 38/69/39 49/72/55 50/59/47
f 36/55/45 35/49/42 46/73/56 47/61/49
f 43/56/46 42/52/43 53/74/57 54/63/51
f 53/74/57 52/68/54 63/75/58 64/76/59
f 50/59/47 49/72/55 60/77/60 61/78/61
f 47/61/49 46/73/56 57/79/62 58/80/63
f 54/63/51 53/74/57 64/76/59 65/81/64
f 51/60/48 50/59/47 61/78/61 62/82/65
f 48/71/50 47/83/49 58/84/63 59/85/66
f 55/64/52 54/63/51 65/81/64 66/86/67
f 45/65/53 67/14/14 56/87/68
f 52/88/54 51/60/48 62/82/65 63/89/58
f 49/72/55 48/71/50 59/85/66 60/77/60
f 79/22/20 55/64/52 66/86/67
f 46/73/56 45/65/53 56/87/68 57/79/62
f 56/87/68 67/14/14 68/90/69
f 63/89/58 62/82/65 74/91/70 75/92/71
f 60/77/60 59/85/66 71/93/72 72/94/73
f 79/22/20 66/86/67 78/95/74
f 57/79/62 56/87/68 68/90/69 69/96/75
f 64/76/59 63/75/58 75/97/71 76/98/76
f 61/78/61 60/77/60 72/94/73 73/99/77
f 58/80/63 57/79/62 69/96/75 70/100/78
f 65/81/64 64/76/59 76/98/76 77/101/79
f 62/82/65 61/78/61 73/99/77 74/91/70
f 59/85/66 58/84/63 70/102/78 71/93/72
f 66/86/67 65/81/64 77/101/79 78/95/74
o Hor._Screw_2
v 0.131305 0.001165 -0.974627
v 0.132005 0.002853 -0.974627
v 0.133117 0.004303 -0.974627
v 0.134567 0.005415 -0.974627
v 0.136255 0.006115 -0.974627
v 0.138067 0.006353 -0.974627
v 0.139879 0.006115 -0.974627
v 0.141567 0.005415 -0.974627
v 0.143017 0.004303 -0.974627
v 0.144129 0.002853 -0.974627
v 0.144828 0.001165 -0.974627
v 0.131305 0.000922 -0.973721
v 0.132005 0.002384 -0.972877
v 0.133117 0.003640 -0.972152
v 0.134567 0.004603 -0.971595
v 0.136255 0.005209 -0.971246
v 0.138067 0.005415 -0.971127
v 0.139879 0.005209 -0.971246
v 0.141567 0.004603 -0.971595
v 0.143017 0.003640 -0.972152
v 0.144129 0.002384 -0.972877
v 0.144828 0.000922 -0.973721
v 0.131305 0.000259 -0.973058
v 0.132005 0.001103 -0.971595
v 0.133117 0.001828 -0.970340
v 0.134567 0.002384 -0.969377
v 0.136255 0.002734 -0.968771
v 0.138067 0.002853 -0.968564
v 0.139879 0.002734 -0.968771
v 0.141567 0.002384 -0.969377
v 0.143017 0.001828 -0.970340
v 0.144129 0.001103 -0.971595
v 0.144828 0.000259 -0.973058
v 0.131305 -0.000647 -0.972815
v 0.132005 -0.000647 -0.971127
v 0.133117 -0.000647 -0.969677
v 0.134567 -0.000647 -0.968564
v 0.136255 -0.000647 -0.967865
v 0.138067 -0.000647 -0.967627
v 0.139879 -0.000647 -0.967865
v 0.141567 -0.000647 -0.968564
v 0.143017 -0.000647 -0.969677
v 0.144129 -0.000647 -0.971127
v 0.144828 -0.000647 -0.972815
v 0.131305 -0.001553 -0.973058
v 0.132005 -0.002397 -0.971595
v 0.133117 -0.003122 -0.970340
v 0.134567 -0.003678 -0.969377
v 0.136255 -0.004028 -0.968771
v 0.138067 -0.004147 -0.968564
v 0.139879 -0.004028 -0.968771
v 0.141567 -0.003678 -0.969377
v 0.143017 -0.003122 -0.970340
v 0.144129 -0.002397 -0.971595
v 0.144828 -0.001553 -0.973058
v 0.131305 -0.002216 -0.973721
v 0.132005 -0.003678 -0.972877
v 0.133117 -0.004933 -0.972152
v 0.134567 -0.005897 -0.971595
v 0.136255 -0.006502 -0.971246
v 0.138067 -0.006709 -0.971127
v 0.139879 -0.006502 -0.971246
v 0.141567 -0.005897 -0.971595
v 0.143017 -0.004933 -0.972152
v 0.144129 -0.003678 -0.972877
v 0.144828 -0.002216 -0.973721
v 0.131067 -0.000647 -0.974627
v 0.131305 -0.002459 -0.974627
v 0.132005 -0.004147 -0.974627
v 0.133117 -0.005597 -0.974627
v 0.134567 -0.006709 -0.974627
v 0.136255 -0.007408 -0.974627
v 0.138067 -0.007647 -0.974627
v 0.139879 -0.007408 -0.974627
v 0.141567 -0.006709 -0.974627
v 0.143017 -0.005597 -0.974627
v 0.144129 -0.004147 -0.974627
v 0.144828 -0.002459 -0.974627
v 0.145067 -0.000647 -0.974627
vn 0.2455 0.9364 0.2509
vn -0.0000 0.9659 0.2588
vn -0.0000 0.8660 0.5000
vn 0.2536 0.8377 0.4837
vn -0.4780 0.8484 0.2273
vn -0.6839 0.7047 0.1888
vn -0.6965 0.6215 0.3588
vn -0.4909 0.7545 0.4356
vn 0.9577 0.2781 0.0745
vn 0.8486 0.5111 0.1369
vn 0.8566 0.4468 0.2580
vn 0.9603 0.2415 0.1394
vn -0.9577 0.2781 0.0745
vn -0.9962 -0.0000 0.0874
vn -0.9603 0.2415 0.1394
vn 0.4780 0.8484 0.2273
vn 0.4909 0.7545 0.4356
vn -0.2455 0.9364 0.2509
vn -0.2536 0.8377 0.4837
vn 0.9962 -0.0000 0.0874
vn -0.8486 0.5111 0.1369
vn -0.8566 0.4468 0.2580
vn 0.6839 0.7047 0.1888
vn 0.6965 0.6215 0.3588
vn -0.2536 0.4837 0.8377
vn -0.0000 0.5000 0.8660
vn -0.8566 0.2580 0.4468
vn -0.6965 0.3588 0.6215
vn 0.6965 0.3588 0.6215
vn 0.8566 0.2580 0.4468
vn 0.2536 0.4837 0.8377
vn -0.4909 0.4356 0.7545
vn 0.9603 0.1394 0.2415
vn -0.9603 0.1394 0.2415
vn 0.4909 0.4356 0.7545
vn 0.2536 -0.0000 0.9673
vn 0.4909 -0.0000 0.8712
vn -0.4909 -0.0000 0.8712
vn -0.2536 -0.0000 0.9673
vn 0.9603 -0.0000 0.2789
vn -0.9603 -0.0000 0.2789
vn -0.8566 -0.0000 0.5159
vn 0.6965 -0.0000 0.7176
vn -0.0000 -0.0000 1.0000
vn -0.6965 -0.0000 0.7176
vn 0.8566 -0.0000 0.5159
vn -0.0000 -0.5000 0.8660
vn 0.2536 -0.4837 0.8377
vn -0.6965 -0.3588 0.6215
vn -0.4909 -0.4356 0.7545
vn 0.8566 -0.2580 0.4468
vn 0.9603 -0.1394 0.2415
vn -0.9603 -0.1394 0.2415
vn 0.4909 -0.4356 0.7545
vn -0.2536 -0.4837 0.8377
vn -0.8566 -0.2580 0.4468
vn 0.6965 -0.3588 0.6215
vn 0.4909 -0.7545 0.4356
vn 0.6965 -0.6215 0.3588
vn -0.2536 -0.8377 0.4837
vn -0.0000 -0.8660 0.5000
vn -0.8566 -0.4468 0.2580
vn -0.6965 -0.6215 0.3588
vn 0.8566 -0.4468 0.2580
vn 0.2536 -0.8377 0.4837
vn -0.4909 -0.7545 0.4356
vn 0.9603 -0.2415 0.1394
vn -0.9603 -0.2415 0.1394
vn -0.9577 -0.2781 0.0745
vn 0.2455 -0.9364 0.2509
vn 0.4780 -0.8484 0.2273
vn -0.4780 -0.8484 0.2273
vn -0.2455 -0.9364 0.2509
vn 0.9577 -0.2781 0.0745
vn -0.8486 -0.5111 0.1369
vn 0.6839 -0.7047 0.1888
vn -0.0000 -0.9659 0.2588
vn -0.6839 -0.7047 0.1888
vn 0.8486 -0.5111 0.1369
vt 0.378761 0.895237
vt 0.394503 0.894113
vt 0.395880 0.925067
vt 0.380092 0.925136
vt 0.213574 0.990031
vt 0.211354 0.979421
vt 0.232476 0.973920
vt 0.239443 0.983293
vt 0.142024 0.964269
vt 0.140455 0.978324
vt 0.125730 0.974132
vt 0.134402 0.962099
vt 0.208972 0.951101
vt 0.208972 0.935320
vt 0.216704 0.949087
vt 0.363486 0.897950
vt 0.364679 0.924757
vt 0.409637 0.894657
vt 0.423133 0.896830
vt 0.424326 0.923637
vt 0.410968 0.924556
vt 0.142837 0.948825
vt 0.209785 0.966143
vt 0.224720 0.962253
vt 0.349717 0.902069
vt 0.350691 0.923956
vt 0.138235 0.990032
vt 0.117411 0.984104
vt 0.409637 0.952774
vt 0.394503 0.954281
vt 0.235864 0.951324
vt 0.248236 0.958464
vt 0.102464 0.968335
vt 0.115160 0.962982
vt 0.378761 0.953354
vt 0.258744 0.964363
vt 0.128931 0.956327
vt 0.222472 0.943430
vt 0.363486 0.950056
vt 0.423133 0.948937
vt 0.349717 0.944613
vt 0.375126 0.972329
vt 0.360227 0.967069
vt 0.266674 0.968620
vt 0.266307 0.938313
vt 0.275108 0.939565
vt 0.127077 0.948500
vt 0.224732 0.935644
vt 0.240230 0.936283
vt 0.091706 0.972022
vt 0.085502 0.945832
vt 0.097399 0.946951
vt 0.406002 0.971749
vt 0.390739 0.973926
vt 0.254410 0.937194
vt 0.111579 0.947861
vt 0.517260 0.896289
vt 0.532522 0.894113
vt 0.528759 0.913758
vt 0.513624 0.915265
vt 0.249346 0.915809
vt 0.260104 0.912123
vt 0.115945 0.932821
vt 0.129337 0.940715
vt 0.222878 0.927817
vt 0.076701 0.944580
vt 0.085136 0.915524
vt 0.093065 0.919781
vt 0.548136 0.895710
vt 0.563035 0.900970
vt 0.559776 0.917982
vt 0.544500 0.914685
vt 0.236649 0.921163
vt 0.103573 0.925681
vt 0.112366 0.900851
vt 0.119333 0.910225
vt 0.543170 0.942903
vt 0.527381 0.942972
vt 0.226080 0.910012
vt 0.234399 0.900041
vt 0.127089 0.921892
vt 0.512294 0.943483
vt 0.573544 0.923426
vt 0.572570 0.944082
vt 0.558583 0.943282
vt 0.135106 0.935057
vt 0.217407 0.922045
vt 0.500128 0.919102
vt 0.498935 0.944402
vt 0.209785 0.919876
vt 0.513624 0.973382
vt 0.500128 0.971209
vt 0.559776 0.970089
vt 0.544500 0.972802
vt 0.142837 0.933044
vt 0.211355 0.905821
vt 0.138235 0.894113
vt 0.140455 0.904723
vt 0.528759 0.973925
vt 0.213574 0.894113
vt 0.142024 0.918002
vt 0.573544 0.965970
s 1
usemtl Shiny_metal_Horizontal_Texture
f 86/103/80 85/104/81 96/105/82 97/106/83
f 83/107/84 82/108/85 93/109/86 94/110/87
f 90/111/88 89/112/89 100/113/90 101/114/91
f 80/115/92 146/116/93 91/117/94
f 87/118/95 86/103/80 97/106/83 98/119/96
f 84/120/97 83/121/84 94/122/87 95/123/98
f 158/124/99 90/111/88 101/114/91
f 81/125/100 80/115/92 91/117/94 92/126/101
f 88/127/102 87/118/95 98/119/96 99/128/103
f 85/104/81 84/120/97 95/123/98 96/105/82
f 82/108/85 81/125/100 92/126/101 93/109/86
f 89/112/89 88/129/102 99/130/103 100/113/90
f 96/105/82 95/123/98 106/131/104 107/132/105
f 93/109/86 92/126/101 103/133/106 104/134/107
f 100/113/90 99/130/103 110/135/108 111/136/109
f 97/106/83 96/105/82 107/132/105 108/137/110
f 94/110/87 93/109/86 104/134/107 105/138/111
f 101/114/91 100/113/90 111/136/109 112/139/112
f 91/117/94 146/116/93 102/140/113
f 98/119/96 97/106/83 108/137/110 109/141/114
f 95/123/98 94/122/87 105/142/111 106/131/104
f 158/124/99 101/114/91 112/139/112
f 92/126/101 91/117/94 102/140/113 103/133/106
f 99/128/103 98/119/96 109/141/114 110/143/108
f 109/141/114 108/137/110 119/144/115 120/145/116
f 106/146/104 105/138/111 116/147/117 117/148/118
f 158/124/99 112/139/112 123/149/119
f 103/133/106 102/140/113 113/150/120 114/151/121
f 110/135/108 109/152/114 120/153/116 121/154/122
f 107/132/105 106/131/104 117/155/118 118/156/123
f 104/134/107 103/133/106 114/151/121 115/157/124
f 111/136/109 110/135/108 121/154/122 122/158/125
f 108/137/110 107/132/105 118/156/123 119/144/115
f 105/138/111 104/134/107 115/157/124 116/147/117
f 112/139/112 111/136/109 122/158/125 123/149/119
f 102/140/113 146/116/93 113/150/120
f 119/159/115 118/160/123 129/161/126 130/162/127
f 116/147/117 115/157/124 126/163/128 127/164/129
f 123/149/119 122/158/125 133/165/130 134/166/131
f 113/150/120 146/116/93 124/167/132
f 120/153/116 119/168/115 130/169/127 131/170/133
f 117/171/118 116/172/117 127/173/129 128/174/134
f 158/124/99 123/149/119 134/166/131
f 114/151/121 113/150/120 124/167/132 125/175/135
f 121/154/122 120/153/116 131/170/133 132/176/136
f 118/160/123 117/171/118 128/174/134 129/161/126
f 115/157/124 114/151/121 125/175/135 126/163/128
f 122/158/125 121/154/122 132/176/136 133/165/130
f 132/176/136 131/170/133 142/177/137 143/178/138
f 129/161/126 128/174/134 139/179/139 140/180/140
f 126/163/128 125/175/135 136/181/141 137/182/142
f 133/165/130 132/176/136 143/178/138 144/183/143
f 130/162/127 129/161/126 140/180/140 141/184/144
f 127/173/129 126/185/128 137/186/142 138/187/145
f 134/166/131 133/165/130 144/183/143 145/188/146
f 124/167/132 146/116/93 135/189/147
f 131/190/133 130/162/127 141/184/144 142/191/137
f 128/174/134 127/173/129 138/187/145 139/179/139
f 158/124/99 134/166/131 145/188/146
f 125/175/135 124/167/132 135/189/147 136/181/141
f 135/189/147 146/116/93 147/192/148
f 142/191/137 141/184/144 153/193/149 154/194/150
f 139/179/139 138/187/145 150/195/151 151/196/152
f 158/124/99 145/188/146 157/197/153
f 136/181/141 135/189/147 147/192/148 148/198/154
f 143/178/138 142/177/137 154/199/150 155/200/155
f 140/180/140 139/179/139 151/196/152 152/201/156
f 137/182/142 136/181/141 148/198/154 149/202/157
f 144/183/143 143/178/138 155/200/155 156/203/158
f 141/184/144 140/180/140 152/201/156 153/193/149
f 138/187/145 137/186/142 149/204/157 150/195/151
f 145/188/146 144/183/143 156/203/158 157/197/153
o Hor._Board
v -0.000000 -0.176777 -0.981638
v 0.176777 -0.000000 -0.981638
v -0.176777 0.000000 -0.981638
v 0.000000 0.176777 -0.981638
v -0.176777 0.000000 -0.973251
v -0.000000 -0.176777 -0.973251
v 0.176777 -0.000000 -0.973251
v 0.000000 0.176777 -0.973251
vn -0.0000 -0.0000 -1.0000
vn -0.0000 -0.0000 1.0000
vn -0.7071 0.7071 -0.0000
vn 0.7071 -0.7071 -0.0000
vn 0.7071 0.7071 -0.0000
vn -0.7071 -0.7071 -0.0000
vt 0.881693 0.000000
vt 0.881693 0.881693
vt 0.000000 0.881693
vt 0.000000 0.000000
vt 0.000000 0.000000
vt 1.000000 0.000000
vt 1.000000 1.000000
vt 0.000000 1.000000
vt 0.911270 0.000000
vt 0.911270 0.881693
vt 0.881693 0.000000
vt 0.940846 0.000000
vt 0.940847 0.881693
vt 0.911270 0.881693
vt 0.911270 0.000000
vt 0.970423 0.000000
vt 0.970423 0.881693
vt 0.940847 0.881693
vt 0.940847 0.000000
vt 1.000000 0.000000
vt 1.000000 0.881693
vt 0.970423 0.881693
vt 0.970423 0.000000
s 0
usemtl Board_Horizontal
f 164/209/160 165/210/160 166/211/160 163/212/160
usemtl Metal_Horizontal_Texture
f 159/205/159 161/206/159 162/207/159 160/208/159
f 162/213/161 161/214/161 163/206/161 166/215/161
f 159/216/162 160/217/162 165/218/162 164/219/162
f 160/220/163 162/221/163 166/222/163 165/223/163
f 161/224/164 159/225/164 164/226/164 163/227/164
