# Blender 3.6.1
# www.blender.org
mtllib normal_vertical.mtl
o Ver._Screw_1
v 0.001812 0.144182 -0.974627
v 0.003500 0.143482 -0.974627
v 0.004950 0.142370 -0.974627
v 0.006062 0.140920 -0.974627
v 0.006761 0.139232 -0.974627
v 0.007000 0.137420 -0.974627
v 0.006761 0.135608 -0.974627
v 0.006062 0.133920 -0.974627
v 0.004950 0.132470 -0.974627
v 0.003500 0.131358 -0.974627
v 0.001812 0.130659 -0.974627
v 0.001569 0.144182 -0.973721
v 0.003031 0.143482 -0.972877
v 0.004287 0.142370 -0.972152
v 0.005250 0.140920 -0.971595
v 0.005856 0.139232 -0.971246
v 0.006062 0.137420 -0.971127
v 0.005856 0.135608 -0.971246
v 0.005250 0.133920 -0.971595
v 0.004287 0.132470 -0.972152
v 0.003031 0.131358 -0.972877
v 0.001569 0.130659 -0.973721
v 0.000906 0.144182 -0.973058
v 0.001750 0.143482 -0.971595
v 0.002475 0.142370 -0.970340
v 0.003031 0.140920 -0.969377
v 0.003381 0.139232 -0.968771
v 0.003500 0.137420 -0.968564
v 0.003381 0.135608 -0.968771
v 0.003031 0.133920 -0.969377
v 0.002475 0.132470 -0.970340
v 0.001750 0.131358 -0.971595
v 0.000906 0.130659 -0.973058
v -0.000000 0.144182 -0.972815
v 0.000000 0.143482 -0.971127
v -0.000000 0.142370 -0.969677
v -0.000000 0.140920 -0.968564
v 0.000000 0.139232 -0.967865
v 0.000000 0.137420 -0.967627
v 0.000000 0.135608 -0.967865
v -0.000000 0.133920 -0.968564
v -0.000000 0.132470 -0.969677
v 0.000000 0.131358 -0.971127
v -0.000000 0.130659 -0.972815
v -0.000906 0.144182 -0.973058
v -0.001750 0.143482 -0.971595
v -0.002475 0.142370 -0.970340
v -0.003031 0.140920 -0.969377
v -0.003381 0.139232 -0.968771
v -0.003500 0.137420 -0.968564
v -0.003381 0.135608 -0.968771
v -0.003031 0.133920 -0.969377
v -0.002475 0.132470 -0.970340
v -0.001750 0.131358 -0.971595
v -0.000906 0.130659 -0.973058
v -0.001569 0.144182 -0.973721
v -0.003031 0.143482 -0.972877
v -0.004287 0.142370 -0.972152
v -0.005250 0.140920 -0.971595
v -0.005856 0.139232 -0.971246
v -0.006062 0.137420 -0.971127
v -0.005856 0.135608 -0.971246
v -0.005250 0.133920 -0.971595
v -0.004287 0.132470 -0.972152
v -0.003031 0.131358 -0.972877
v -0.001569 0.130659 -0.973721
v 0.000000 0.144420 -0.974627
v -0.001812 0.144182 -0.974627
v -0.003500 0.143482 -0.974627
v -0.004950 0.142370 -0.974627
v -0.006062 0.140920 -0.974627
v -0.006761 0.139232 -0.974627
v -0.007000 0.137420 -0.974627
v -0.006761 0.135608 -0.974627
v -0.006062 0.133920 -0.974627
v -0.004950 0.132470 -0.974627
v -0.003500 0.131358 -0.974627
v -0.001812 0.130659 -0.974627
v 0.000000 0.130420 -0.974627
vn 0.9364 -0.2455 0.2509
vn 0.9659 -0.0000 0.2588
vn 0.8660 -0.0000 0.5000
vn 0.8377 -0.2536 0.4837
vn 0.8484 0.4780 0.2273
vn 0.7047 0.6839 0.1888
vn 0.6215 0.6965 0.3588
vn 0.7545 0.4909 0.4356
vn 0.2781 -0.9577 0.0745
vn 0.5111 -0.8486 0.1369
vn 0.4468 -0.8566 0.2580
vn 0.2415 -0.9603 0.1394
vn 0.2781 0.9577 0.0745
vn -0.0000 0.9962 0.0874
vn 0.2415 0.9603 0.1394
vn 0.8484 -0.4780 0.2273
vn 0.7545 -0.4909 0.4356
vn 0.9364 0.2455 0.2509
vn 0.8377 0.2536 0.4837
vn -0.0000 -0.9962 0.0874
vn 0.5111 0.8486 0.1369
vn 0.4468 0.8566 0.2580
vn 0.7047 -0.6839 0.1888
vn 0.6215 -0.6965 0.3588
vn 0.4837 0.2536 0.8377
vn 0.5000 -0.0000 0.8660
vn 0.2580 0.8566 0.4468
vn 0.3588 0.6965 0.6215
vn 0.3588 -0.6965 0.6215
vn 0.2580 -0.8566 0.4468
vn 0.4837 -0.2536 0.8377
vn 0.4356 0.4909 0.7545
vn 0.1394 -0.9603 0.2415
vn 0.1394 0.9603 0.2415
vn 0.4356 -0.4909 0.7545
vn -0.0000 -0.2536 0.9673
vn -0.0000 -0.4909 0.8712
vn -0.0000 0.4909 0.8712
vn -0.0000 0.2536 0.9673
vn -0.0000 -0.9603 0.2789
vn -0.0000 0.9603 0.2789
vn -0.0000 0.8566 0.5159
vn -0.0000 -0.6965 0.7176
vn -0.0000 -0.0000 1.0000
vn -0.0000 0.6965 0.7176
vn -0.0000 -0.8566 0.5159
vn -0.5000 -0.0000 0.8660
vn -0.4837 -0.2536 0.8377
vn -0.3588 0.6965 0.6215
vn -0.4356 0.4909 0.7545
vn -0.2580 -0.8566 0.4468
vn -0.1394 -0.9603 0.2415
vn -0.1394 0.9603 0.2415
vn -0.4356 -0.4909 0.7545
vn -0.4837 0.2536 0.8377
vn -0.2580 0.8566 0.4468
vn -0.3588 -0.6965 0.6215
vn -0.7545 -0.4909 0.4356
vn -0.6215 -0.6965 0.3588
vn -0.8377 0.2536 0.4837
vn -0.8660 -0.0000 0.5000
vn -0.4468 0.8566 0.2580
vn -0.6215 0.6965 0.3588
vn -0.4468 -0.8566 0.2580
vn -0.8377 -0.2536 0.4837
vn -0.7545 0.4909 0.4356
vn -0.2415 -0.9603 0.1394
vn -0.2415 0.9603 0.1394
vn -0.2781 0.9577 0.0745
vn -0.9364 -0.2455 0.2509
vn -0.8484 -0.4780 0.2273
vn -0.8484 0.4780 0.2273
vn -0.9364 0.2455 0.2509
vn -0.2781 -0.9577 0.0745
vn -0.5111 0.8486 0.1369
vn -0.7047 -0.6839 0.1888
vn -0.9659 -0.0000 0.2588
vn -0.7047 0.6839 0.1888
vn -0.5111 -0.8486 0.1369
vt 0.308818 0.891788
vt 0.324889 0.890641
vt 0.326296 0.922244
vt 0.310176 0.922314
vt 0.148816 0.988571
vt 0.146550 0.977739
vt 0.168115 0.972122
vt 0.175228 0.981692
vt 0.075765 0.962268
vt 0.074163 0.976618
vt 0.059129 0.972339
vt 0.067983 0.960053
vt 0.144118 0.948824
vt 0.144118 0.932712
vt 0.152011 0.946768
vt 0.293222 0.894558
vt 0.294440 0.921928
vt 0.340341 0.891196
vt 0.354121 0.893415
vt 0.355339 0.920784
vt 0.341700 0.921723
vt 0.076595 0.946500
vt 0.144947 0.964182
vt 0.160196 0.960210
vt 0.279164 0.898763
vt 0.280159 0.921110
vt 0.071896 0.988572
vt 0.050635 0.982520
vt 0.340341 0.950532
vt 0.324889 0.952071
vt 0.171573 0.949052
vt 0.184205 0.956342
vt 0.035374 0.966420
vt 0.048338 0.960955
vt 0.308818 0.951124
vt 0.194934 0.962365
vt 0.062397 0.954161
vt 0.157901 0.940992
vt 0.293222 0.947758
vt 0.354121 0.946614
vt 0.279164 0.942201
vt 0.305106 0.970498
vt 0.289894 0.965128
vt 0.203029 0.966711
vt 0.202655 0.935768
vt 0.211641 0.937046
vt 0.060504 0.946169
vt 0.160208 0.933043
vt 0.176031 0.933696
vt 0.024391 0.970184
vt 0.018058 0.943445
vt 0.030203 0.944587
vt 0.336630 0.969906
vt 0.321047 0.972128
vt 0.190509 0.934625
vt 0.044681 0.945517
vt 0.450222 0.892863
vt 0.465805 0.890641
vt 0.461962 0.910698
vt 0.446510 0.912237
vt 0.185338 0.912792
vt 0.196322 0.909028
vt 0.049139 0.930161
vt 0.062812 0.938221
vt 0.158315 0.925052
vt 0.009071 0.942166
vt 0.017683 0.912501
vt 0.025779 0.916848
vt 0.481745 0.892271
vt 0.496957 0.897641
vt 0.493630 0.915011
vt 0.478034 0.911645
vt 0.172375 0.918258
vt 0.036508 0.922871
vt 0.045485 0.897520
vt 0.052598 0.907090
vt 0.476675 0.940455
vt 0.460556 0.940525
vt 0.161584 0.906874
vt 0.170077 0.896693
vt 0.060517 0.919002
vt 0.445152 0.941047
vt 0.507687 0.920568
vt 0.506692 0.941659
vt 0.492412 0.940841
vt 0.068701 0.932444
vt 0.152730 0.919159
vt 0.432731 0.916155
vt 0.431513 0.941985
vt 0.144947 0.916944
vt 0.446510 0.971573
vt 0.432731 0.969354
vt 0.493630 0.968211
vt 0.478034 0.970981
vt 0.076595 0.930388
vt 0.146550 0.902594
vt 0.071896 0.890641
vt 0.074163 0.901474
vt 0.461962 0.972128
vt 0.148816 0.890641
vt 0.075765 0.915031
vt 0.507687 0.964006
s 1
usemtl Shiny_metal_Vertical_Texture
f 7/1/1 6/2/2 17/3/3 18/4/4
f 4/5/5 3/6/6 14/7/7 15/8/8
f 11/9/9 10/10/10 21/11/11 22/12/12
f 1/13/13 67/14/14 12/15/15
f 8/16/16 7/1/1 18/4/4 19/17/17
f 5/18/18 4/19/5 15/20/8 16/21/19
f 79/22/20 11/9/9 22/12/12
f 2/23/21 1/13/13 12/15/15 13/24/22
f 9/25/23 8/16/16 19/17/17 20/26/24
f 6/2/2 5/18/18 16/21/19 17/3/3
f 3/6/6 2/23/21 13/24/22 14/7/7
f 10/10/10 9/27/23 20/28/24 21/11/11
f 17/3/3 16/21/19 27/29/25 28/30/26
f 14/7/7 13/24/22 24/31/27 25/32/28
f 21/11/11 20/28/24 31/33/29 32/34/30
f 18/4/4 17/3/3 28/30/26 29/35/31
f 15/8/8 14/7/7 25/32/28 26/36/32
f 22/12/12 21/11/11 32/34/30 33/37/33
f 12/15/15 67/14/14 23/38/34
f 19/17/17 18/4/4 29/35/31 30/39/35
f 16/21/19 15/20/8 26/40/32 27/29/25
f 79/22/20 22/12/12 33/37/33
f 13/24/22 12/15/15 23/38/34 24/31/27
f 20/26/24 19/17/17 30/39/35 31/41/29
f 30/39/35 29/35/31 40/42/36 41/43/37
f 27/44/25 26/36/32 37/45/38 38/46/39
f 79/22/20 33/37/33 44/47/40
f 24/31/27 23/38/34 34/48/41 35/49/42
f 31/33/29 30/50/35 41/51/37 42/52/43
f 28/30/26 27/29/25 38/53/39 39/54/44
f 25/32/28 24/31/27 35/49/42 36/55/45
f 32/34/30 31/33/29 42/52/43 43/56/46
f 29/35/31 28/30/26 39/54/44 40/42/36
f 26/36/32 25/32/28 36/55/45 37/45/38
f 33/37/33 32/34/30 43/56/46 44/47/40
f 23/38/34 67/14/14 34/48/41
f 40/57/36 39/58/44 50/59/47 51/60/48
f 37/45/38 36/55/45 47/61/49 48/62/50
f 44/47/40 43/56/46 54/63/51 55/64/52
f 34/48/41 67/14/14 45/65/53
f 41/51/37 40/66/36 51/67/48 52/68/54
f 38/69/39 37/70/38 48/71/50 49/72/55
f 79/22/20 44/47/40 55/64/52
f 35/49/42 34/48/41 45/65/53 46/73/56
f 42/52/43 41/51/37 52/68/54 53/74/57
f 39/58/44 38/69/39 49/72/55 50/59/47
f 36/55/45 35/49/42 46/73/56 47/61/49
f 43/56/46 42/52/43 53/74/57 54/63/51
f 53/74/57 52/68/54 63/75/58 64/76/59
f 50/59/47 49/72/55 60/77/60 61/78/61
f 47/61/49 46/73/56 57/79/62 58/80/63
f 54/63/51 53/74/57 64/76/59 65/81/64
f 51/60/48 50/59/47 61/78/61 62/82/65
f 48/71/50 47/83/49 58/84/63 59/85/66
f 55/64/52 54/63/51 65/81/64 66/86/67
f 45/65/53 67/14/14 56/87/68
f 52/88/54 51/60/48 62/82/65 63/89/58
f 49/72/55 48/71/50 59/85/66 60/77/60
f 79/22/20 55/64/52 66/86/67
f 46/73/56 45/65/53 56/87/68 57/79/62
f 56/87/68 67/14/14 68/90/69
f 63/89/58 62/82/65 74/91/70 75/92/71
f 60/77/60 59/85/66 71/93/72 72/94/73
f 79/22/20 66/86/67 78/95/74
f 57/79/62 56/87/68 68/90/69 69/96/75
f 64/76/59 63/75/58 75/97/71 76/98/76
f 61/78/61 60/77/60 72/94/73 73/99/77
f 58/80/63 57/79/62 69/96/75 70/100/78
f 65/81/64 64/76/59 76/98/76 77/101/79
f 62/82/65 61/78/61 73/99/77 74/91/70
f 59/85/66 58/84/63 70/102/78 71/93/72
f 66/86/67 65/81/64 77/101/79 78/95/74
o Ver._Screw_2
v 0.001812 -0.131952 -0.974627
v 0.003500 -0.132651 -0.974627
v 0.004950 -0.133764 -0.974627
v 0.006062 -0.135214 -0.974627
v 0.006761 -0.136902 -0.974627
v 0.007000 -0.138714 -0.974627
v 0.006761 -0.140525 -0.974627
v 0.006062 -0.142214 -0.974627
v 0.004950 -0.143663 -0.974627
v 0.003500 -0.144776 -0.974627
v 0.001812 -0.145475 -0.974627
v 0.001569 -0.131952 -0.973721
v 0.003031 -0.132651 -0.972877
v 0.004287 -0.133764 -0.972152
v 0.005250 -0.135214 -0.971595
v 0.005856 -0.136902 -0.971246
v 0.006062 -0.138714 -0.971127
v 0.005856 -0.140525 -0.971246
v 0.005250 -0.142214 -0.971595
v 0.004287 -0.143663 -0.972152
v 0.003031 -0.144776 -0.972877
v 0.001569 -0.145475 -0.973721
v 0.000906 -0.131952 -0.973058
v 0.001750 -0.132651 -0.971595
v 0.002475 -0.133764 -0.970340
v 0.003031 -0.135214 -0.969377
v 0.003381 -0.136902 -0.968771
v 0.003500 -0.138714 -0.968564
v 0.003381 -0.140525 -0.968771
v 0.003031 -0.142214 -0.969377
v 0.002475 -0.143663 -0.970340
v 0.001750 -0.144776 -0.971595
v 0.000906 -0.145475 -0.973058
v -0.000000 -0.131952 -0.972815
v 0.000000 -0.132651 -0.971127
v -0.000000 -0.133764 -0.969677
v -0.000000 -0.135214 -0.968564
v 0.000000 -0.136902 -0.967865
v 0.000000 -0.138714 -0.967627
v 0.000000 -0.140525 -0.967865
v -0.000000 -0.142214 -0.968564
v -0.000000 -0.143663 -0.969677
v 0.000000 -0.144776 -0.971127
v -0.000000 -0.145475 -0.972815
v -0.000906 -0.131952 -0.973058
v -0.001750 -0.132651 -0.971595
v -0.002475 -0.133764 -0.970340
v -0.003031 -0.135214 -0.969377
v -0.003381 -0.136902 -0.968771
v -0.003500 -0.138714 -0.968564
v -0.003381 -0.140525 -0.968771
v -0.003031 -0.142214 -0.969377
v -0.002475 -0.143663 -0.970340
v -0.001750 -0.144776 -0.971595
v -0.000906 -0.145475 -0.973058
v -0.001569 -0.131952 -0.973721
v -0.003031 -0.132651 -0.972877
v -0.004287 -0.133764 -0.972152
v -0.005250 -0.135214 -0.971595
v -0.005856 -0.136902 -0.971246
v -0.006062 -0.138714 -0.971127
v -0.005856 -0.140525 -0.971246
v -0.005250 -0.142214 -0.971595
v -0.004287 -0.143663 -0.972152
v -0.003031 -0.144776 -0.972877
v -0.001569 -0.145475 -0.973721
v 0.000000 -0.131714 -0.974627
v -0.001812 -0.131952 -0.974627
v -0.003500 -0.132651 -0.974627
v -0.004950 -0.133764 -0.974627
v -0.006062 -0.135214 -0.974627
v -0.006761 -0.136902 -0.974627
v -0.007000 -0.138714 -0.974627
v -0.006761 -0.140525 -0.974627
v -0.006062 -0.142214 -0.974627
v -0.004950 -0.143663 -0.974627
v -0.003500 -0.144776 -0.974627
v -0.001812 -0.145475 -0.974627
v 0.000000 -0.145714 -0.974627
vn 0.9364 -0.2455 0.2509
vn 0.9659 -0.0000 0.2588
vn 0.8660 -0.0000 0.5000
vn 0.8377 -0.2536 0.4837
vn 0.8484 0.4780 0.2273
vn 0.7047 0.6839 0.1888
vn 0.6215 0.6965 0.3588
vn 0.7545 0.4909 0.4356
vn 0.2781 -0.9577 0.0745
vn 0.5111 -0.8486 0.1369
vn 0.4468 -0.8566 0.2580
vn 0.2415 -0.9603 0.1394
vn 0.2781 0.9577 0.0745
vn -0.0000 0.9962 0.0874
vn 0.2415 0.9603 0.1394
vn 0.8484 -0.4780 0.2273
vn 0.7545 -0.4909 0.4356
vn 0.9364 0.2455 0.2509
vn 0.8377 0.2536 0.4837
vn -0.0000 -0.9962 0.0874
vn 0.5111 0.8486 0.1369
vn 0.4468 0.8566 0.2580
vn 0.7047 -0.6839 0.1888
vn 0.6215 -0.6965 0.3588
vn 0.4837 0.2536 0.8377
vn 0.5000 -0.0000 0.8660
vn 0.2580 0.8566 0.4468
vn 0.3588 0.6965 0.6215
vn 0.3588 -0.6965 0.6215
vn 0.2580 -0.8566 0.4468
vn 0.4837 -0.2536 0.8377
vn 0.4356 0.4909 0.7545
vn 0.1394 -0.9603 0.2415
vn 0.1394 0.9603 0.2415
vn 0.4356 -0.4909 0.7545
vn -0.0000 -0.2536 0.9673
vn -0.0000 -0.4909 0.8712
vn -0.0000 0.4909 0.8712
vn -0.0000 0.2536 0.9673
vn -0.0000 -0.9603 0.2789
vn -0.0000 0.9603 0.2789
vn -0.0000 0.8566 0.5159
vn -0.0000 -0.6965 0.7176
vn -0.0000 -0.0000 1.0000
vn -0.0000 0.6965 0.7176
vn -0.0000 -0.8566 0.5159
vn -0.5000 -0.0000 0.8660
vn -0.4837 -0.2536 0.8377
vn -0.3588 0.6965 0.6215
vn -0.4356 0.4909 0.7545
vn -0.2580 -0.8566 0.4468
vn -0.1394 -0.9603 0.2415
vn -0.1394 0.9603 0.2415
vn -0.4356 -0.4909 0.7545
vn -0.4837 0.2536 0.8377
vn -0.2580 0.8566 0.4468
vn -0.3588 -0.6965 0.6215
vn -0.7545 -0.4909 0.4356
vn -0.6215 -0.6965 0.3588
vn -0.8377 0.2536 0.4837
vn -0.8660 -0.0000 0.5000
vn -0.4468 0.8566 0.2580
vn -0.6215 0.6965 0.3588
vn -0.4468 -0.8566 0.2580
vn -0.8377 -0.2536 0.4837
vn -0.7545 0.4909 0.4356
vn -0.2415 -0.9603 0.1394
vn -0.2415 0.9603 0.1394
vn -0.2781 0.9577 0.0745
vn -0.9364 -0.2455 0.2509
vn -0.8484 -0.4780 0.2273
vn -0.8484 0.4780 0.2273
vn -0.9364 0.2455 0.2509
vn -0.2781 -0.9577 0.0745
vn -0.5111 0.8486 0.1369
vn -0.7047 -0.6839 0.1888
vn -0.9659 -0.0000 0.2588
vn -0.7047 0.6839 0.1888
vn -0.5111 -0.8486 0.1369
vt 0.384992 0.891788
vt 0.401063 0.890641
vt 0.402470 0.922244
vt 0.386350 0.922314
vt 0.216339 0.988571
vt 0.214073 0.977739
vt 0.235638 0.972122
vt 0.242751 0.981692
vt 0.143288 0.962269
vt 0.141686 0.976618
vt 0.126652 0.972339
vt 0.135506 0.960053
vt 0.211641 0.948824
vt 0.211641 0.932712
vt 0.219534 0.946768
vt 0.369396 0.894558
vt 0.370614 0.921928
vt 0.416515 0.891196
vt 0.430295 0.893415
vt 0.431513 0.920784
vt 0.417874 0.921723
vt 0.144118 0.946500
vt 0.212471 0.964182
vt 0.227719 0.960210
vt 0.355339 0.898764
vt 0.356333 0.921110
vt 0.139420 0.988572
vt 0.118158 0.982520
vt 0.416515 0.950532
vt 0.401063 0.952071
vt 0.239097 0.949052
vt 0.251728 0.956342
vt 0.102898 0.966420
vt 0.115861 0.960955
vt 0.384992 0.951124
vt 0.262457 0.962365
vt 0.129920 0.954161
vt 0.225424 0.940992
vt 0.369396 0.947758
vt 0.430295 0.946615
vt 0.355339 0.942201
vt 0.381280 0.970498
vt 0.366068 0.965128
vt 0.270553 0.966711
vt 0.270178 0.935768
vt 0.279164 0.937046
vt 0.128028 0.946169
vt 0.227731 0.933043
vt 0.243554 0.933696
vt 0.091914 0.970184
vt 0.085581 0.943445
vt 0.097727 0.944587
vt 0.412804 0.969906
vt 0.397221 0.972128
vt 0.258032 0.934625
vt 0.112205 0.945517
vt 0.526396 0.892863
vt 0.541979 0.890641
vt 0.538136 0.910698
vt 0.522684 0.912237
vt 0.252861 0.912792
vt 0.263845 0.909028
vt 0.116662 0.930161
vt 0.130335 0.938221
vt 0.225839 0.925052
vt 0.076595 0.942166
vt 0.085206 0.912501
vt 0.093302 0.916848
vt 0.557919 0.892271
vt 0.573131 0.897641
vt 0.569804 0.915011
vt 0.554208 0.911645
vt 0.239898 0.918258
vt 0.104031 0.922871
vt 0.113008 0.897520
vt 0.120121 0.907090
vt 0.552849 0.940455
vt 0.536730 0.940525
vt 0.229107 0.906874
vt 0.237601 0.896693
vt 0.128040 0.919002
vt 0.521326 0.941046
vt 0.583861 0.920568
vt 0.582867 0.941659
vt 0.568586 0.940841
vt 0.136225 0.932444
vt 0.220253 0.919159
vt 0.508905 0.916154
vt 0.507687 0.941985
vt 0.212471 0.916944
vt 0.522684 0.971573
vt 0.508905 0.969354
vt 0.569804 0.968211
vt 0.554208 0.970981
vt 0.144118 0.930388
vt 0.214073 0.902594
vt 0.139420 0.890641
vt 0.141686 0.901474
vt 0.538136 0.972128
vt 0.216339 0.890641
vt 0.143288 0.915031
vt 0.583861 0.964005
s 1
usemtl Shiny_metal_Vertical_Texture
f 86/103/80 85/104/81 96/105/82 97/106/83
f 83/107/84 82/108/85 93/109/86 94/110/87
f 90/111/88 89/112/89 100/113/90 101/114/91
f 80/115/92 146/116/93 91/117/94
f 87/118/95 86/103/80 97/106/83 98/119/96
f 84/120/97 83/121/84 94/122/87 95/123/98
f 158/124/99 90/111/88 101/114/91
f 81/125/100 80/115/92 91/117/94 92/126/101
f 88/127/102 87/118/95 98/119/96 99/128/103
f 85/104/81 84/120/97 95/123/98 96/105/82
f 82/108/85 81/125/100 92/126/101 93/109/86
f 89/112/89 88/129/102 99/130/103 100/113/90
f 96/105/82 95/123/98 106/131/104 107/132/105
f 93/109/86 92/126/101 103/133/106 104/134/107
f 100/113/90 99/130/103 110/135/108 111/136/109
f 97/106/83 96/105/82 107/132/105 108/137/110
f 94/110/87 93/109/86 104/134/107 105/138/111
f 101/114/91 100/113/90 111/136/109 112/139/112
f 91/117/94 146/116/93 102/140/113
f 98/119/96 97/106/83 108/137/110 109/141/114
f 95/123/98 94/122/87 105/142/111 106/131/104
f 158/124/99 101/114/91 112/139/112
f 92/126/101 91/117/94 102/140/113 103/133/106
f 99/128/103 98/119/96 109/141/114 110/143/108
f 109/141/114 108/137/110 119/144/115 120/145/116
f 106/146/104 105/138/111 116/147/117 117/148/118
f 158/124/99 112/139/112 123/149/119
f 103/133/106 102/140/113 113/150/120 114/151/121
f 110/135/108 109/152/114 120/153/116 121/154/122
f 107/132/105 106/131/104 117/155/118 118/156/123
f 104/134/107 103/133/106 114/151/121 115/157/124
f 111/136/109 110/135/108 121/154/122 122/158/125
f 108/137/110 107/132/105 118/156/123 119/144/115
f 105/138/111 104/134/107 115/157/124 116/147/117
f 112/139/112 111/136/109 122/158/125 123/149/119
f 102/140/113 146/116/93 113/150/120
f 119/159/115 118/160/123 129/161/126 130/162/127
f 116/147/117 115/157/124 126/163/128 127/164/129
f 123/149/119 122/158/125 133/165/130 134/166/131
f 113/150/120 146/116/93 124/167/132
f 120/153/116 119/168/115 130/169/127 131/170/133
f 117/171/118 116/172/117 127/173/129 128/174/134
f 158/124/99 123/149/119 134/166/131
f 114/151/121 113/150/120 124/167/132 125/175/135
f 121/154/122 120/153/116 131/170/133 132/176/136
f 118/160/123 117/171/118 128/174/134 129/161/126
f 115/157/124 114/151/121 125/175/135 126/163/128
f 122/158/125 121/154/122 132/176/136 133/165/130
f 132/176/136 131/170/133 142/177/137 143/178/138
f 129/161/126 128/174/134 139/179/139 140/180/140
f 126/163/128 125/175/135 136/181/141 137/182/142
f 133/165/130 132/176/136 143/178/138 144/183/143
f 130/162/127 129/161/126 140/180/140 141/184/144
f 127/173/129 126/185/128 137/186/142 138/187/145
f 134/166/131 133/165/130 144/183/143 145/188/146
f 124/167/132 146/116/93 135/189/147
f 131/190/133 130/162/127 141/184/144 142/191/137
f 128/174/134 127/173/129 138/187/145 139/179/139
f 158/124/99 134/166/131 145/188/146
f 125/175/135 124/167/132 135/189/147 136/181/141
f 135/189/147 146/116/93 147/192/148
f 142/191/137 141/184/144 153/193/149 154/194/150
f 139/179/139 138/187/145 150/195/151 151/196/152
f 158/124/99 145/188/146 157/197/153
f 136/181/141 135/189/147 147/192/148 148/198/154
f 143/178/138 142/177/137 154/199/150 155/200/155
f 140/180/140 139/179/139 151/196/152 152/201/156
f 137/182/142 136/181/141 148/198/154 149/202/157
f 144/183/143 143/178/138 155/200/155 156/203/158
f 141/184/144 140/180/140 152/201/156 153/193/149
f 138/187/145 137/186/142 149/204/157 150/195/151
f 145/188/146 144/183/143 156/203/158 157/197/153
o Ver._Board
v -0.000000 -0.176777 -0.981638
v 0.176777 -0.000000 -0.981638
v -0.176777 0.000000 -0.981638
v 0.000000 0.176777 -0.981638
v -0.176777 0.000000 -0.973251
v -0.000000 -0.176777 -0.973251
v 0.176777 -0.000000 -0.973251
v 0.000000 0.176777 -0.973251
vn -0.0000 -0.0000 -1.0000
vn -0.0000 -0.0000 1.0000
vn -0.7071 0.7071 -0.0000
vn 0.7071 -0.7071 -0.0000
vn 0.7071 0.7071 -0.0000
vn -0.7071 -0.7071 -0.0000
vt 0.881693 0.000000
vt 0.881693 0.881693
vt 0.000000 0.881693
vt 0.000000 0.000000
vt 0.000000 -0.000000
vt 1.000000 0.000000
vt 1.000000 1.000000
vt -0.000000 1.000000
vt 0.911270 0.000000
vt 0.911270 0.881693
vt 0.881693 0.000000
vt 0.940846 0.000000
vt 0.940847 0.881693
vt 0.911270 0.881693
vt 0.911270 0.000000
vt 0.970423 0.000000
vt 0.970423 0.881693
vt 0.940847 0.881693
vt 0.940847 0.000000
vt 1.000000 0.000000
vt 1.000000 0.881693
vt 0.970423 0.881693
vt 0.970423 0.000000
s 0
usemtl Board_Vertical
f 164/209/160 165/210/160 166/211/160 163/212/160
usemtl Metal_Vertical_Texture
f 159/205/159 161/206/159 162/207/159 160/208/159
f 162/213/161 161/214/161 163/206/161 166/215/161
f 159/216/162 160/217/162 165/218/162 164/219/162
f 160/220/163 162/221/163 166/222/163 165/223/163
f 161/224/164 159/225/164 164/226/164 163/227/164
