# Blender 3.6.1
# www.blender.org
mtllib ohl_end_1_pole.mtl
o Pole._Screw_1
v 0.001812 0.166762 -0.974627
v 0.003500 0.166062 -0.974627
v 0.004950 0.164950 -0.974627
v 0.006062 0.163500 -0.974627
v 0.006761 0.161812 -0.974627
v 0.007000 0.160000 -0.974627
v 0.006761 0.158188 -0.974627
v 0.006062 0.156500 -0.974627
v 0.004950 0.155050 -0.974627
v 0.003500 0.153938 -0.974627
v 0.001812 0.153239 -0.974627
v 0.001569 0.166762 -0.973721
v 0.003031 0.166062 -0.972877
v 0.004287 0.164950 -0.972152
v 0.005250 0.163500 -0.971595
v 0.005856 0.161812 -0.971246
v 0.006062 0.160000 -0.971127
v 0.005856 0.158188 -0.971246
v 0.005250 0.156500 -0.971595
v 0.004287 0.155050 -0.972152
v 0.003031 0.153938 -0.972877
v 0.001569 0.153239 -0.973721
v 0.000906 0.166762 -0.973058
v 0.001750 0.166062 -0.971595
v 0.002475 0.164950 -0.970340
v 0.003031 0.163500 -0.969377
v 0.003381 0.161812 -0.968771
v 0.003500 0.160000 -0.968564
v 0.003381 0.158188 -0.968771
v 0.003031 0.156500 -0.969377
v 0.002475 0.155050 -0.970340
v 0.001750 0.153938 -0.971595
v 0.000906 0.153239 -0.973058
v -0.000000 0.166762 -0.972815
v 0.000000 0.166062 -0.971127
v -0.000000 0.164950 -0.969677
v -0.000000 0.163500 -0.968564
v 0.000000 0.161812 -0.967865
v 0.000000 0.160000 -0.967627
v 0.000000 0.158188 -0.967865
v -0.000000 0.156500 -0.968564
v -0.000000 0.155050 -0.969677
v 0.000000 0.153938 -0.971127
v -0.000000 0.153239 -0.972815
v -0.000906 0.166762 -0.973058
v -0.001750 0.166062 -0.971595
v -0.002475 0.164950 -0.970340
v -0.003031 0.163500 -0.969377
v -0.003381 0.161812 -0.968771
v -0.003500 0.160000 -0.968564
v -0.003381 0.158188 -0.968771
v -0.003031 0.156500 -0.969377
v -0.002475 0.155050 -0.970340
v -0.001750 0.153938 -0.971595
v -0.000906 0.153239 -0.973058
v -0.001569 0.166762 -0.973721
v -0.003031 0.166062 -0.972877
v -0.004287 0.164950 -0.972152
v -0.005250 0.163500 -0.971595
v -0.005856 0.161812 -0.971246
v -0.006062 0.160000 -0.971127
v -0.005856 0.158188 -0.971246
v -0.005250 0.156500 -0.971595
v -0.004287 0.155050 -0.972152
v -0.003031 0.153938 -0.972877
v -0.001569 0.153239 -0.973721
v 0.000000 0.167000 -0.974627
v -0.001812 0.166762 -0.974627
v -0.003500 0.166062 -0.974627
v -0.004950 0.164950 -0.974627
v -0.006062 0.163500 -0.974627
v -0.006761 0.161812 -0.974627
v -0.007000 0.160000 -0.974627
v -0.006761 0.158188 -0.974627
v -0.006062 0.156500 -0.974627
v -0.004950 0.155050 -0.974627
v -0.003500 0.153938 -0.974627
v -0.001812 0.153239 -0.974627
v 0.000000 0.153000 -0.974627
vn 0.9364 -0.2455 0.2509
vn 0.9659 -0.0000 0.2588
vn 0.8660 -0.0000 0.5000
vn 0.8377 -0.2536 0.4837
vn 0.8484 0.4780 0.2273
vn 0.7047 0.6839 0.1888
vn 0.6215 0.6965 0.3588
vn 0.7545 0.4909 0.4356
vn 0.2781 -0.9577 0.0745
vn 0.5111 -0.8486 0.1369
vn 0.4468 -0.8566 0.2580
vn 0.2415 -0.9603 0.1394
vn 0.2781 0.9577 0.0745
vn -0.0000 0.9962 0.0874
vn 0.2415 0.9603 0.1394
vn 0.8484 -0.4780 0.2273
vn 0.7545 -0.4909 0.4356
vn 0.9364 0.2455 0.2509
vn 0.8377 0.2536 0.4837
vn -0.0000 -0.9962 0.0874
vn 0.5111 0.8486 0.1369
vn 0.4468 0.8566 0.2580
vn 0.7047 -0.6839 0.1888
vn 0.6215 -0.6965 0.3588
vn 0.4837 0.2536 0.8377
vn 0.5000 -0.0000 0.8660
vn 0.2580 0.8566 0.4468
vn 0.3588 0.6965 0.6215
vn 0.3588 -0.6965 0.6215
vn 0.2580 -0.8566 0.4468
vn 0.4837 -0.2536 0.8377
vn 0.4356 0.4909 0.7545
vn 0.1394 -0.9603 0.2415
vn 0.1394 0.9603 0.2415
vn 0.4356 -0.4909 0.7545
vn -0.0000 -0.2536 0.9673
vn -0.0000 -0.4909 0.8712
vn -0.0000 0.4909 0.8712
vn -0.0000 0.2536 0.9673
vn -0.0000 -0.9603 0.2789
vn -0.0000 0.9603 0.2789
vn -0.0000 0.8566 0.5159
vn -0.0000 -0.6965 0.7176
vn -0.0000 -0.0000 1.0000
vn -0.0000 0.6965 0.7176
vn -0.0000 -0.8566 0.5159
vn -0.5000 -0.0000 0.8660
vn -0.4837 -0.2536 0.8377
vn -0.3588 0.6965 0.6215
vn -0.4356 0.4909 0.7545
vn -0.2580 -0.8566 0.4468
vn -0.1394 -0.9603 0.2415
vn -0.1394 0.9603 0.2415
vn -0.4356 -0.4909 0.7545
vn -0.4837 0.2536 0.8377
vn -0.2580 0.8566 0.4468
vn -0.3588 -0.6965 0.6215
vn -0.7545 -0.4909 0.4356
vn -0.6215 -0.6965 0.3588
vn -0.8377 0.2536 0.4837
vn -0.8660 -0.0000 0.5000
vn -0.4468 0.8566 0.2580
vn -0.6215 0.6965 0.3588
vn -0.4468 -0.8566 0.2580
vn -0.8377 -0.2536 0.4837
vn -0.7545 0.4909 0.4356
vn -0.2415 -0.9603 0.1394
vn -0.2415 0.9603 0.1394
vn -0.2781 0.9577 0.0745
vn -0.9364 -0.2455 0.2509
vn -0.8484 -0.4780 0.2273
vn -0.8484 0.4780 0.2273
vn -0.9364 0.2455 0.2509
vn -0.2781 -0.9577 0.0745
vn -0.5111 0.8486 0.1369
vn -0.7047 -0.6839 0.1888
vn -0.9659 -0.0000 0.2588
vn -0.7047 0.6839 0.1888
vn -0.5111 -0.8486 0.1369
vt 0.491049 0.850211
vt 0.509890 0.848866
vt 0.511538 0.885914
vt 0.492642 0.885996
vt 0.303483 0.963668
vt 0.300826 0.950969
vt 0.326106 0.944385
vt 0.334444 0.955603
vt 0.217846 0.932834
vt 0.215967 0.949656
vt 0.198343 0.944639
vt 0.208723 0.930237
vt 0.297975 0.917073
vt 0.297975 0.898185
vt 0.307228 0.914663
vt 0.472767 0.853458
vt 0.474194 0.885543
vt 0.528004 0.849517
vt 0.544157 0.852118
vt 0.545585 0.884202
vt 0.529596 0.885302
vt 0.218818 0.914349
vt 0.298947 0.935077
vt 0.316823 0.930421
vt 0.456287 0.858388
vt 0.457453 0.884585
vt 0.213311 0.963668
vt 0.188386 0.956574
vt 0.528004 0.919076
vt 0.509890 0.920879
vt 0.330160 0.917339
vt 0.344968 0.925885
vt 0.170497 0.937700
vt 0.185693 0.931293
vt 0.491049 0.919769
vt 0.357546 0.932946
vt 0.202175 0.923329
vt 0.314132 0.907891
vt 0.472767 0.915823
vt 0.544157 0.914483
vt 0.456287 0.909308
vt 0.486698 0.942481
vt 0.468866 0.936185
vt 0.367036 0.938041
vt 0.366597 0.901767
vt 0.377131 0.903266
vt 0.199956 0.913961
vt 0.316837 0.898573
vt 0.335386 0.899338
vt 0.157621 0.942113
vt 0.150197 0.910767
vt 0.164435 0.912106
vt 0.523653 0.941787
vt 0.505385 0.944391
vt 0.352358 0.900428
vt 0.181407 0.913196
vt 0.656815 0.851471
vt 0.675082 0.848866
vt 0.670578 0.872379
vt 0.652464 0.874182
vt 0.346296 0.874834
vt 0.359172 0.870421
vt 0.186633 0.895195
vt 0.202661 0.904643
vt 0.314618 0.889205
vt 0.139662 0.909268
vt 0.149757 0.874493
vt 0.159248 0.879588
vt 0.693769 0.850777
vt 0.711602 0.857072
vt 0.707701 0.877435
vt 0.689418 0.873488
vt 0.331100 0.881241
vt 0.171825 0.886649
vt 0.182349 0.856931
vt 0.190687 0.868149
vt 0.687826 0.907261
vt 0.668929 0.907344
vt 0.318450 0.867895
vt 0.328407 0.855960
vt 0.199970 0.882113
vt 0.650871 0.907955
vt 0.724180 0.883949
vt 0.723014 0.908673
vt 0.706273 0.907715
vt 0.209565 0.897871
vt 0.308070 0.882297
vt 0.636310 0.878775
vt 0.634883 0.909055
vt 0.298947 0.879700
vt 0.652464 0.943741
vt 0.636310 0.941140
vt 0.707701 0.939800
vt 0.689418 0.943047
vt 0.218818 0.895461
vt 0.300826 0.862878
vt 0.213311 0.848866
vt 0.215967 0.861565
vt 0.670578 0.944392
vt 0.303483 0.848866
vt 0.217846 0.877457
vt 0.724180 0.934870
s 1
usemtl Atlas_BAKED
f 7/1/1 6/2/2 17/3/3 18/4/4
f 4/5/5 3/6/6 14/7/7 15/8/8
f 11/9/9 10/10/10 21/11/11 22/12/12
f 1/13/13 67/14/14 12/15/15
f 8/16/16 7/1/1 18/4/4 19/17/17
f 5/18/18 4/19/5 15/20/8 16/21/19
f 79/22/20 11/9/9 22/12/12
f 2/23/21 1/13/13 12/15/15 13/24/22
f 9/25/23 8/16/16 19/17/17 20/26/24
f 6/2/2 5/18/18 16/21/19 17/3/3
f 3/6/6 2/23/21 13/24/22 14/7/7
f 10/10/10 9/27/23 20/28/24 21/11/11
f 17/3/3 16/21/19 27/29/25 28/30/26
f 14/7/7 13/24/22 24/31/27 25/32/28
f 21/11/11 20/28/24 31/33/29 32/34/30
f 18/4/4 17/3/3 28/30/26 29/35/31
f 15/8/8 14/7/7 25/32/28 26/36/32
f 22/12/12 21/11/11 32/34/30 33/37/33
f 12/15/15 67/14/14 23/38/34
f 19/17/17 18/4/4 29/35/31 30/39/35
f 16/21/19 15/20/8 26/40/32 27/29/25
f 79/22/20 22/12/12 33/37/33
f 13/24/22 12/15/15 23/38/34 24/31/27
f 20/26/24 19/17/17 30/39/35 31/41/29
f 30/39/35 29/35/31 40/42/36 41/43/37
f 27/44/25 26/36/32 37/45/38 38/46/39
f 79/22/20 33/37/33 44/47/40
f 24/31/27 23/38/34 34/48/41 35/49/42
f 31/33/29 30/50/35 41/51/37 42/52/43
f 28/30/26 27/29/25 38/53/39 39/54/44
f 25/32/28 24/31/27 35/49/42 36/55/45
f 32/34/30 31/33/29 42/52/43 43/56/46
f 29/35/31 28/30/26 39/54/44 40/42/36
f 26/36/32 25/32/28 36/55/45 37/45/38
f 33/37/33 32/34/30 43/56/46 44/47/40
f 23/38/34 67/14/14 34/48/41
f 40/57/36 39/58/44 50/59/47 51/60/48
f 37/45/38 36/55/45 47/61/49 48/62/50
f 44/47/40 43/56/46 54/63/51 55/64/52
f 34/48/41 67/14/14 45/65/53
f 41/51/37 40/66/36 51/67/48 52/68/54
f 38/69/39 37/70/38 48/71/50 49/72/55
f 79/22/20 44/47/40 55/64/52
f 35/49/42 34/48/41 45/65/53 46/73/56
f 42/52/43 41/51/37 52/68/54 53/74/57
f 39/58/44 38/69/39 49/72/55 50/59/47
f 36/55/45 35/49/42 46/73/56 47/61/49
f 43/56/46 42/52/43 53/74/57 54/63/51
f 53/74/57 52/68/54 63/75/58 64/76/59
f 50/59/47 49/72/55 60/77/60 61/78/61
f 47/61/49 46/73/56 57/79/62 58/80/63
f 54/63/51 53/74/57 64/76/59 65/81/64
f 51/60/48 50/59/47 61/78/61 62/82/65
f 48/71/50 47/83/49 58/84/63 59/85/66
f 55/64/52 54/63/51 65/81/64 66/86/67
f 45/65/53 67/14/14 56/87/68
f 52/88/54 51/60/48 62/82/65 63/89/58
f 49/72/55 48/71/50 59/85/66 60/77/60
f 79/22/20 55/64/52 66/86/67
f 46/73/56 45/65/53 56/87/68 57/79/62
f 56/87/68 67/14/14 68/90/69
f 63/89/58 62/82/65 74/91/70 75/92/71
f 60/77/60 59/85/66 71/93/72 72/94/73
f 79/22/20 66/86/67 78/95/74
f 57/79/62 56/87/68 68/90/69 69/96/75
f 64/76/59 63/75/58 75/97/71 76/98/76
f 61/78/61 60/77/60 72/94/73 73/99/77
f 58/80/63 57/79/62 69/96/75 70/100/78
f 65/81/64 64/76/59 76/98/76 77/101/79
f 62/82/65 61/78/61 73/99/77 74/91/70
f 59/85/66 58/84/63 70/102/78 71/93/72
f 66/86/67 65/81/64 77/101/79 78/95/74
o Pole._Screw_2
v 0.001812 -0.153238 -0.974627
v 0.003500 -0.153938 -0.974627
v 0.004950 -0.155050 -0.974627
v 0.006062 -0.156500 -0.974627
v 0.006761 -0.158188 -0.974627
v 0.007000 -0.160000 -0.974627
v 0.006761 -0.161812 -0.974627
v 0.006062 -0.163500 -0.974627
v 0.004950 -0.164950 -0.974627
v 0.003500 -0.166062 -0.974627
v 0.001812 -0.166761 -0.974627
v 0.001569 -0.153238 -0.973721
v 0.003031 -0.153938 -0.972877
v 0.004287 -0.155050 -0.972152
v 0.005250 -0.156500 -0.971595
v 0.005856 -0.158188 -0.971246
v 0.006062 -0.160000 -0.971127
v 0.005856 -0.161812 -0.971246
v 0.005250 -0.163500 -0.971595
v 0.004287 -0.164950 -0.972152
v 0.003031 -0.166062 -0.972877
v 0.001569 -0.166761 -0.973721
v 0.000906 -0.153238 -0.973058
v 0.001750 -0.153938 -0.971595
v 0.002475 -0.155050 -0.970340
v 0.003031 -0.156500 -0.969377
v 0.003381 -0.158188 -0.968771
v 0.003500 -0.160000 -0.968564
v 0.003381 -0.161812 -0.968771
v 0.003031 -0.163500 -0.969377
v 0.002475 -0.164950 -0.970340
v 0.001750 -0.166062 -0.971595
v 0.000906 -0.166761 -0.973058
v -0.000000 -0.153238 -0.972815
v 0.000000 -0.153938 -0.971127
v -0.000000 -0.155050 -0.969677
v -0.000000 -0.156500 -0.968564
v 0.000000 -0.158188 -0.967865
v 0.000000 -0.160000 -0.967627
v 0.000000 -0.161812 -0.967865
v -0.000000 -0.163500 -0.968564
v -0.000000 -0.164950 -0.969677
v 0.000000 -0.166062 -0.971127
v -0.000000 -0.166761 -0.972815
v -0.000906 -0.153238 -0.973058
v -0.001750 -0.153938 -0.971595
v -0.002475 -0.155050 -0.970340
v -0.003031 -0.156500 -0.969377
v -0.003381 -0.158188 -0.968771
v -0.003500 -0.160000 -0.968564
v -0.003381 -0.161812 -0.968771
v -0.003031 -0.163500 -0.969377
v -0.002475 -0.164950 -0.970340
v -0.001750 -0.166062 -0.971595
v -0.000906 -0.166761 -0.973058
v -0.001569 -0.153238 -0.973721
v -0.003031 -0.153938 -0.972877
v -0.004287 -0.155050 -0.972152
v -0.005250 -0.156500 -0.971595
v -0.005856 -0.158188 -0.971246
v -0.006062 -0.160000 -0.971127
v -0.005856 -0.161812 -0.971246
v -0.005250 -0.163500 -0.971595
v -0.004287 -0.164950 -0.972152
v -0.003031 -0.166062 -0.972877
v -0.001569 -0.166761 -0.973721
v 0.000000 -0.153000 -0.974627
v -0.001812 -0.153238 -0.974627
v -0.003500 -0.153938 -0.974627
v -0.004950 -0.155050 -0.974627
v -0.006062 -0.156500 -0.974627
v -0.006761 -0.158188 -0.974627
v -0.007000 -0.160000 -0.974627
v -0.006761 -0.161812 -0.974627
v -0.006062 -0.163500 -0.974627
v -0.004950 -0.164950 -0.974627
v -0.003500 -0.166062 -0.974627
v -0.001812 -0.166761 -0.974627
v 0.000000 -0.167000 -0.974627
vn 0.9364 -0.2455 0.2509
vn 0.9659 -0.0000 0.2588
vn 0.8660 -0.0000 0.5000
vn 0.8377 -0.2536 0.4837
vn 0.8484 0.4780 0.2273
vn 0.7047 0.6839 0.1888
vn 0.6215 0.6965 0.3588
vn 0.7545 0.4909 0.4356
vn 0.2781 -0.9577 0.0745
vn 0.5111 -0.8486 0.1369
vn 0.4468 -0.8566 0.2580
vn 0.2415 -0.9603 0.1394
vn 0.2781 0.9577 0.0745
vn -0.0000 0.9962 0.0874
vn 0.2415 0.9603 0.1394
vn 0.8484 -0.4780 0.2273
vn 0.7545 -0.4909 0.4356
vn 0.9364 0.2455 0.2509
vn 0.8377 0.2536 0.4837
vn -0.0000 -0.9962 0.0874
vn 0.5111 0.8486 0.1369
vn 0.4468 0.8566 0.2580
vn 0.7047 -0.6839 0.1888
vn 0.6215 -0.6965 0.3588
vn 0.4837 0.2536 0.8377
vn 0.5000 -0.0000 0.8660
vn 0.2580 0.8566 0.4468
vn 0.3588 0.6965 0.6215
vn 0.3588 -0.6965 0.6215
vn 0.2580 -0.8566 0.4468
vn 0.4837 -0.2536 0.8377
vn 0.4356 0.4909 0.7545
vn 0.1394 -0.9603 0.2415
vn 0.1394 0.9603 0.2415
vn 0.4356 -0.4909 0.7545
vn -0.0000 -0.2536 0.9673
vn -0.0000 -0.4909 0.8712
vn -0.0000 0.4909 0.8712
vn -0.0000 0.2536 0.9673
vn -0.0000 -0.9603 0.2789
vn -0.0000 0.9603 0.2789
vn -0.0000 0.8566 0.5159
vn -0.0000 -0.6965 0.7176
vn -0.0000 -0.0000 1.0000
vn -0.0000 0.6965 0.7176
vn -0.0000 -0.8566 0.5159
vn -0.5000 -0.0000 0.8660
vn -0.4837 -0.2536 0.8377
vn -0.3588 0.6965 0.6215
vn -0.4356 0.4909 0.7545
vn -0.2580 -0.8566 0.4468
vn -0.1394 -0.9603 0.2415
vn -0.1394 0.9603 0.2415
vn -0.4356 -0.4909 0.7545
vn -0.4837 0.2536 0.8377
vn -0.2580 0.8566 0.4468
vn -0.3588 -0.6965 0.6215
vn -0.7545 -0.4909 0.4356
vn -0.6215 -0.6965 0.3588
vn -0.8377 0.2536 0.4837
vn -0.8660 -0.0000 0.5000
vn -0.4468 0.8566 0.2580
vn -0.6215 0.6965 0.3588
vn -0.4468 -0.8566 0.2580
vn -0.8377 -0.2536 0.4837
vn -0.7545 0.4909 0.4356
vn -0.2415 -0.9603 0.1394
vn -0.2415 0.9603 0.1394
vn -0.2781 0.9577 0.0745
vn -0.9364 -0.2455 0.2509
vn -0.8484 -0.4780 0.2273
vn -0.8484 0.4780 0.2273
vn -0.9364 0.2455 0.2509
vn -0.2781 -0.9577 0.0745
vn -0.5111 0.8486 0.1369
vn -0.7047 -0.6839 0.1888
vn -0.9659 -0.0000 0.2588
vn -0.7047 0.6839 0.1888
vn -0.5111 -0.8486 0.1369
vt 0.580347 0.850211
vt 0.599187 0.848866
vt 0.600836 0.885914
vt 0.581939 0.885996
vt 0.382639 0.963668
vt 0.379982 0.950969
vt 0.405262 0.944385
vt 0.413600 0.955603
vt 0.297002 0.932833
vt 0.295124 0.949655
vt 0.277500 0.944639
vt 0.287879 0.930237
vt 0.377131 0.917073
vt 0.377131 0.898185
vt 0.386384 0.914663
vt 0.562064 0.853458
vt 0.563492 0.885543
vt 0.617301 0.849517
vt 0.633455 0.852118
vt 0.634882 0.884202
vt 0.618894 0.885302
vt 0.297975 0.914349
vt 0.378103 0.935077
vt 0.395979 0.930421
vt 0.545585 0.858388
vt 0.546751 0.884585
vt 0.292467 0.963668
vt 0.267543 0.956573
vt 0.617301 0.919076
vt 0.599187 0.920879
vt 0.409317 0.917340
vt 0.424124 0.925885
vt 0.249653 0.937700
vt 0.264850 0.931293
vt 0.580347 0.919769
vt 0.436702 0.932947
vt 0.281331 0.923329
vt 0.393288 0.907892
vt 0.562064 0.915823
vt 0.633455 0.914483
vt 0.545585 0.909308
vt 0.575996 0.942481
vt 0.558163 0.936185
vt 0.446192 0.938042
vt 0.445753 0.901767
vt 0.456287 0.903266
vt 0.279112 0.913960
vt 0.395993 0.898574
vt 0.414542 0.899338
vt 0.236777 0.942113
vt 0.229353 0.910767
vt 0.243591 0.912106
vt 0.612950 0.941787
vt 0.594683 0.944392
vt 0.431515 0.900428
vt 0.260563 0.913196
vt 0.746112 0.851471
vt 0.764380 0.848866
vt 0.759875 0.872379
vt 0.741761 0.874182
vt 0.425453 0.874834
vt 0.438329 0.870421
vt 0.265789 0.895194
vt 0.281818 0.904642
vt 0.393774 0.889205
vt 0.218818 0.909268
vt 0.228914 0.874492
vt 0.238404 0.879587
vt 0.783067 0.850777
vt 0.800900 0.857072
vt 0.796998 0.877435
vt 0.778716 0.873488
vt 0.410256 0.881241
vt 0.250982 0.886649
vt 0.261505 0.856931
vt 0.269844 0.868149
vt 0.777123 0.907261
vt 0.758227 0.907343
vt 0.397606 0.867895
vt 0.407563 0.855961
vt 0.279127 0.882113
vt 0.740169 0.907955
vt 0.813478 0.883949
vt 0.812312 0.908673
vt 0.795571 0.907715
vt 0.288722 0.897871
vt 0.387226 0.882297
vt 0.725608 0.878775
vt 0.724180 0.909055
vt 0.378103 0.879701
vt 0.741761 0.943741
vt 0.725608 0.941140
vt 0.796998 0.939799
vt 0.778716 0.943047
vt 0.297975 0.895461
vt 0.379982 0.862879
vt 0.292467 0.848866
vt 0.295124 0.861565
vt 0.759875 0.944391
vt 0.382639 0.848866
vt 0.297002 0.877457
vt 0.813478 0.934870
s 1
usemtl Atlas_BAKED
f 86/103/80 85/104/81 96/105/82 97/106/83
f 83/107/84 82/108/85 93/109/86 94/110/87
f 90/111/88 89/112/89 100/113/90 101/114/91
f 80/115/92 146/116/93 91/117/94
f 87/118/95 86/103/80 97/106/83 98/119/96
f 84/120/97 83/121/84 94/122/87 95/123/98
f 158/124/99 90/111/88 101/114/91
f 81/125/100 80/115/92 91/117/94 92/126/101
f 88/127/102 87/118/95 98/119/96 99/128/103
f 85/104/81 84/120/97 95/123/98 96/105/82
f 82/108/85 81/125/100 92/126/101 93/109/86
f 89/112/89 88/129/102 99/130/103 100/113/90
f 96/105/82 95/123/98 106/131/104 107/132/105
f 93/109/86 92/126/101 103/133/106 104/134/107
f 100/113/90 99/130/103 110/135/108 111/136/109
f 97/106/83 96/105/82 107/132/105 108/137/110
f 94/110/87 93/109/86 104/134/107 105/138/111
f 101/114/91 100/113/90 111/136/109 112/139/112
f 91/117/94 146/116/93 102/140/113
f 98/119/96 97/106/83 108/137/110 109/141/114
f 95/123/98 94/122/87 105/142/111 106/131/104
f 158/124/99 101/114/91 112/139/112
f 92/126/101 91/117/94 102/140/113 103/133/106
f 99/128/103 98/119/96 109/141/114 110/143/108
f 109/141/114 108/137/110 119/144/115 120/145/116
f 106/146/104 105/138/111 116/147/117 117/148/118
f 158/124/99 112/139/112 123/149/119
f 103/133/106 102/140/113 113/150/120 114/151/121
f 110/135/108 109/152/114 120/153/116 121/154/122
f 107/132/105 106/131/104 117/155/118 118/156/123
f 104/134/107 103/133/106 114/151/121 115/157/124
f 111/136/109 110/135/108 121/154/122 122/158/125
f 108/137/110 107/132/105 118/156/123 119/144/115
f 105/138/111 104/134/107 115/157/124 116/147/117
f 112/139/112 111/136/109 122/158/125 123/149/119
f 102/140/113 146/116/93 113/150/120
f 119/159/115 118/160/123 129/161/126 130/162/127
f 116/147/117 115/157/124 126/163/128 127/164/129
f 123/149/119 122/158/125 133/165/130 134/166/131
f 113/150/120 146/116/93 124/167/132
f 120/153/116 119/168/115 130/169/127 131/170/133
f 117/171/118 116/172/117 127/173/129 128/174/134
f 158/124/99 123/149/119 134/166/131
f 114/151/121 113/150/120 124/167/132 125/175/135
f 121/154/122 120/153/116 131/170/133 132/176/136
f 118/160/123 117/171/118 128/174/134 129/161/126
f 115/157/124 114/151/121 125/175/135 126/163/128
f 122/158/125 121/154/122 132/176/136 133/165/130
f 132/176/136 131/170/133 142/177/137 143/178/138
f 129/161/126 128/174/134 139/179/139 140/180/140
f 126/163/128 125/175/135 136/181/141 137/182/142
f 133/165/130 132/176/136 143/178/138 144/183/143
f 130/162/127 129/161/126 140/180/140 141/184/144
f 127/173/129 126/185/128 137/186/142 138/187/145
f 134/166/131 133/165/130 144/183/143 145/188/146
f 124/167/132 146/116/93 135/189/147
f 131/190/133 130/162/127 141/184/144 142/191/137
f 128/174/134 127/173/129 138/187/145 139/179/139
f 158/124/99 134/166/131 145/188/146
f 125/175/135 124/167/132 135/189/147 136/181/141
f 135/189/147 146/116/93 147/192/148
f 142/191/137 141/184/144 153/193/149 154/194/150
f 139/179/139 138/187/145 150/195/151 151/196/152
f 158/124/99 145/188/146 157/197/153
f 136/181/141 135/189/147 147/192/148 148/198/154
f 143/178/138 142/177/137 154/199/150 155/200/155
f 140/180/140 139/179/139 151/196/152 152/201/156
f 137/182/142 136/181/141 148/198/154 149/202/157
f 144/183/143 143/178/138 155/200/155 156/203/158
f 141/184/144 140/180/140 152/201/156 153/193/149
f 138/187/145 137/186/142 149/204/157 150/195/151
f 145/188/146 144/183/143 156/203/158 157/197/153
o Pole._Board
v -0.100000 -0.175000 -0.981638
v 0.100000 -0.175000 -0.981638
v -0.100000 0.175000 -0.981638
v 0.100000 0.175000 -0.981638
v -0.100000 0.175000 -0.973251
v -0.100000 -0.175000 -0.973251
v 0.100000 -0.175000 -0.973251
v 0.100000 0.175000 -0.973251
vn -0.0000 -0.0000 -1.0000
vn -0.0000 -0.0000 1.0000
vn -0.0000 1.0000 -0.0000
vn -0.0000 -1.0000 -0.0000
vn 1.0000 -0.0000 -0.0000
vn -1.0000 -0.0000 -0.0000
vt 0.470412 0.000000
vt 0.470412 0.823221
vt 0.000000 0.823221
vt 0.000000 0.000000
vt 0.940824 0.000000
vt 0.940824 0.823221
vt 1.000000 -0.000000
vt 1.000000 0.470412
vt 0.980275 0.470412
vt 0.980275 -0.000000
vt 1.000000 0.470412
vt 1.000000 0.940824
vt 0.980275 0.940824
vt 0.980275 0.470412
vt 0.960550 -0.000000
vt 0.960550 0.823221
vt 0.940824 -0.000000
vt 0.980275 -0.000000
vt 0.980275 0.823221
vt 0.960550 0.823221
vt 0.960550 -0.000000
s 0
usemtl Atlas_BAKED
f 164/205/160 165/209/160 166/210/160 163/206/160
usemtl Atlas_BAKED
f 159/205/159 161/206/159 162/207/159 160/208/159
f 162/211/161 161/212/161 163/213/161 166/214/161
f 159/215/162 160/216/162 165/217/162 164/218/162
f 160/219/163 162/220/163 166/210/163 165/221/163
f 161/222/164 159/223/164 164/224/164 163/225/164
