# Blender 3.6.1
# www.blender.org
mtllib lshape1_1.5.mtl
o Pole_LShape_1m_Hor._1.5m
v -0.981555 1.518432 0.018445
v 0.150000 1.518445 0.018445
v -0.981555 1.518432 -0.018445
v 0.150000 1.518445 -0.018445
v -0.981555 1.481541 0.018445
v 0.150000 1.481555 0.018445
v -0.981555 1.481541 -0.018445
v 0.150000 1.481555 -0.018445
vn -0.0000 1.0000 -0.0000
vn -0.0000 -0.0000 -1.0000
vn -0.0000 -1.0000 -0.0000
vn -0.0000 -0.0000 1.0000
vn 1.0000 -0.0000 -0.0000
vt 0.422954 0.734516
vt 0.422954 0.021810
vt 0.446190 0.021810
vt 0.446190 0.734516
vt 0.289236 0.734516
vt 0.289228 0.021809
vt 0.312464 0.021809
vt 0.312472 0.734516
vt 0.489808 0.734516
vt 0.489808 0.021809
vt 0.513044 0.021809
vt 0.513044 0.734516
vt 0.356091 0.734516
vt 0.356099 0.021809
vt 0.379335 0.021809
vt 0.379327 0.734516
vt 0.579899 0.599119
vt 0.556663 0.599119
vt 0.556663 0.575883
vt 0.579899 0.575883
s 0
usemtl metal_texture
f 1/1/1 2/2/1 4/3/1 3/4/1
f 3/5/2 4/6/2 8/7/2 7/8/2
f 7/9/3 8/10/3 6/11/3 5/12/3
f 5/13/4 6/14/4 2/15/4 1/16/4
f 8/17/5 4/18/5 2/19/5 6/20/5
o Pole_LShape_1m_1.5m
v -1.018445 0.000000 0.018445
v -1.018445 1.518432 0.018445
v -1.018445 0.000000 -0.018445
v -1.018445 1.518432 -0.018445
v -0.981555 0.000000 0.018445
v -0.981555 1.518432 0.018445
v -0.981555 0.000000 -0.018445
v -0.981555 1.518432 -0.018445
vn -1.0000 -0.0000 -0.0000
vn -0.0000 -0.0000 -1.0000
vn 1.0000 -0.0000 -0.0000
vn -0.0000 -0.0000 1.0000
vn -0.0000 1.0000 -0.0000
vt 0.021809 0.978190
vt 0.021809 0.021810
vt 0.045045 0.021810
vt 0.045045 0.978190
vt 0.088664 0.978190
vt 0.088664 0.021810
vt 0.111900 0.021810
vt 0.111900 0.978190
vt 0.155519 0.978190
vt 0.155519 0.021810
vt 0.178754 0.021810
vt 0.178754 0.978190
vt 0.222373 0.978190
vt 0.222373 0.021810
vt 0.245609 0.021810
vt 0.245609 0.978190
vt 0.579899 0.532264
vt 0.556663 0.532264
vt 0.556663 0.509029
vt 0.579899 0.509029
s 0
usemtl metal_texture
f 9/21/6 10/22/6 12/23/6 11/24/6
f 11/25/7 12/26/7 16/27/7 15/28/7
f 15/29/8 16/30/8 14/31/8 13/32/8
f 13/33/9 14/34/9 10/35/9 9/36/9
f 16/37/10 12/38/10 10/39/10 14/40/10
o Pole_LShape_1m_1.5m_support
v -0.981555 0.968935 0.018445
v -0.622622 1.481544 0.018445
v -0.981555 0.968935 -0.018445
v -0.622622 1.481544 -0.018445
v -0.981554 0.904618 0.018445
v -0.577586 1.481545 0.018445
v -0.981554 0.904618 -0.018445
v -0.577586 1.481545 -0.018445
vn -0.8192 0.5736 -0.0000
vn -0.0000 -0.0000 -1.0000
vn 0.8192 -0.5736 -0.0000
vn -0.0000 -0.0000 1.0000
vt 0.757227 0.415956
vt 0.757227 0.021809
vt 0.780463 0.021809
vt 0.780463 0.415956
vt 0.556663 0.432226
vt 0.556663 0.038080
vt 0.579899 0.021809
vt 0.579899 0.465410
vt 0.623518 0.465410
vt 0.623518 0.021809
vt 0.646753 0.021809
vt 0.646753 0.465410
vt 0.690372 0.465410
vt 0.690372 0.021809
vt 0.713608 0.038080
vt 0.713608 0.432226
s 0
usemtl metal_texture
f 17/41/11 18/42/11 20/43/11 19/44/11
f 19/45/12 20/46/12 24/47/12 23/48/12
f 23/49/13 24/50/13 22/51/13 21/52/13
f 21/53/14 22/54/14 18/55/14 17/56/14
