# Blender 3.6.1
# www.blender.org
mtllib lshape1_2.mtl
o Pole_LShape_1m_Hor._2m
v -0.981555 2.018432 0.018445
v 0.150000 2.018445 0.018445
v -0.981555 2.018432 -0.018445
v 0.150000 2.018445 -0.018445
v -0.981555 1.981541 0.018445
v 0.150000 1.981555 0.018445
v -0.981555 1.981541 -0.018445
v 0.150000 1.981555 -0.018445
vn -0.0000 1.0000 -0.0000
vn -0.0000 -0.0000 -1.0000
vn -0.0000 -1.0000 -0.0000
vn -0.0000 -0.0000 1.0000
vn 1.0000 -0.0000 -0.0000
vt 0.333632 0.558486
vt 0.333632 0.017523
vt 0.351268 0.017523
vt 0.351268 0.558486
vt 0.228260 0.558486
vt 0.228254 0.017523
vt 0.245890 0.017523
vt 0.245897 0.558486
vt 0.386314 0.558486
vt 0.386314 0.017523
vt 0.403951 0.017523
vt 0.403951 0.558486
vt 0.280943 0.558486
vt 0.280949 0.017523
vt 0.298585 0.017523
vt 0.298579 0.558486
vt 0.456634 0.406910
vt 0.438997 0.406910
vt 0.438997 0.389274
vt 0.456634 0.389274
s 0
usemtl metal_texture
f 1/1/1 2/2/1 4/3/1 3/4/1
f 3/5/2 4/6/2 8/7/2 7/8/2
f 7/9/3 8/10/3 6/11/3 5/12/3
f 5/13/4 6/14/4 2/15/4 1/16/4
f 8/17/5 4/18/5 2/19/5 6/20/5
o Pole_LShape_1m_2m
v -1.018445 0.000000 0.018445
v -1.018445 2.018432 0.018445
v -1.018445 0.000000 -0.018445
v -1.018445 2.018432 -0.018445
v -0.981555 0.000000 0.018445
v -0.981555 2.018432 0.018445
v -0.981555 0.000000 -0.018445
v -0.981555 2.018432 -0.018445
vn -1.0000 -0.0000 -0.0000
vn -0.0000 -0.0000 -1.0000
vn 1.0000 -0.0000 -0.0000
vn -0.0000 -0.0000 1.0000
vn -0.0000 1.0000 -0.0000
vt 0.017523 0.982477
vt 0.017523 0.017523
vt 0.035160 0.017523
vt 0.035160 0.982477
vt 0.070206 0.982477
vt 0.070206 0.017523
vt 0.087842 0.017523
vt 0.087842 0.982477
vt 0.122888 0.982477
vt 0.122888 0.017523
vt 0.140525 0.017523
vt 0.140525 0.982477
vt 0.175571 0.982477
vt 0.175571 0.017523
vt 0.193208 0.017523
vt 0.193208 0.982477
vt 0.456634 0.459593
vt 0.438997 0.459593
vt 0.438997 0.441956
vt 0.456634 0.441956
s 0
usemtl metal_texture
f 9/21/6 10/22/6 12/23/6 11/24/6
f 11/25/7 12/26/7 16/27/7 15/28/7
f 15/29/8 16/30/8 14/31/8 13/32/8
f 13/33/9 14/34/9 10/35/9 9/36/9
f 16/37/10 12/38/10 10/39/10 14/40/10
o Pole_LShape_1m_2m_support
v -0.981555 1.468935 0.018445
v -0.622622 1.981544 0.018445
v -0.981555 1.468935 -0.018445
v -0.622622 1.981544 -0.018445
v -0.981554 1.404618 0.018445
v -0.577586 1.981545 0.018445
v -0.981554 1.404618 -0.018445
v -0.577586 1.981545 -0.018445
vn -0.8192 0.5736 -0.0000
vn -0.0000 -0.0000 -1.0000
vn 0.8192 -0.5736 -0.0000
vn -0.0000 -0.0000 1.0000
vt 0.597045 0.316690
vt 0.597045 0.017523
vt 0.614682 0.017523
vt 0.614682 0.316690
vt 0.438997 0.329040
vt 0.438997 0.029872
vt 0.456633 0.017523
vt 0.456633 0.354227
vt 0.544362 0.354227
vt 0.544362 0.017523
vt 0.561999 0.017523
vt 0.561999 0.354227
vt 0.491680 0.354227
vt 0.491680 0.017523
vt 0.509316 0.029872
vt 0.509316 0.329040
s 0
usemtl metal_texture
f 17/41/11 18/42/11 20/43/11 19/44/11
f 19/45/12 20/46/12 24/47/12 23/48/12
f 23/49/13 24/50/13 22/51/13 21/52/13
f 21/53/14 22/54/14 18/55/14 17/56/14
