# Blender 3.6.1
# www.blender.org
mtllib roof_1.5.mtl
o Pole_roof_1.5m
v 0.018445 1.000000 0.018445
v 0.018446 -0.650000 0.018445
v 0.018445 1.000000 -0.018445
v 0.018446 -0.650000 -0.018445
v -0.018445 1.000000 0.018445
v -0.018445 -0.650000 0.018445
v -0.018445 1.000000 -0.018445
v -0.018445 -0.650000 -0.018445
vn 1.0000 -0.0000 -0.0000
vn -0.0000 -0.0000 -1.0000
vn -1.0000 -0.0000 -0.0000
vn -0.0000 -0.0000 1.0000
vn -0.0000 -1.0000 -0.0000
vt 0.008538 0.991462
vt 0.008538 0.008538
vt 0.030514 0.008538
vt 0.030514 0.991462
vt 0.047591 0.991462
vt 0.047591 0.008538
vt 0.069567 0.008538
vt 0.069567 0.991462
vt 0.086643 0.991462
vt 0.086643 0.008538
vt 0.108620 0.008538
vt 0.108620 0.991462
vt 0.125696 0.991462
vt 0.125696 0.008538
vt 0.147672 0.008538
vt 0.147672 0.991462
vt 0.186725 0.030514
vt 0.164749 0.030514
vt 0.164749 0.008538
vt 0.186725 0.008538
s 0
usemtl metal_texture
f 1/1/1 2/2/1 4/3/1 3/4/1
f 3/5/2 4/6/2 8/7/2 7/8/2
f 7/9/3 8/10/3 6/11/3 5/12/3
f 5/13/4 6/14/4 2/15/4 1/16/4
f 8/17/5 4/18/5 2/19/5 6/20/5
