# Blender 4.2.2 LTS
# www.blender.org
mtllib fence_2m.mtl
o Pole_right
v 0.925000 0.000000 0.049993
v 0.925000 0.000000 0.056667
v 1.074990 0.000000 0.049993
v 1.085000 0.000000 0.056667
v 0.925000 0.000000 -0.049993
v 0.925000 0.000000 -0.056667
v 1.074990 0.000000 -0.049993
v 1.085000 0.000000 -0.056667
v 0.925000 1.199990 0.049993
v 0.925000 1.210000 0.056667
v 1.074990 1.199990 0.049993
v 1.085000 1.210000 0.056667
v 0.925000 1.199990 -0.049993
v 0.925000 1.210000 -0.056667
v 1.074990 1.199990 -0.049993
v 1.085000 1.210000 -0.056667
vn -0.0000 -1.0000 -0.0000
vn -1.0000 -0.0000 -0.0000
vn -0.0000 -0.0000 1.0000
vn -0.0000 -0.0000 -1.0000
vn 1.0000 -0.0000 -0.0000
vn -0.0000 1.0000 -0.0000
vt 0.789167 0.785109
vt 0.752500 0.867065
vt 0.789167 0.867065
vt 0.747500 0.736630
vt 0.669167 0.698152
vt 0.669167 0.736630
vt 0.830833 0.867065
vt 0.794167 0.785109
vt 0.794167 0.867065
vt 0.664167 0.997500
vt 0.335833 0.959022
vt 0.335833 0.997500
vt 0.997500 0.693152
vt 0.960833 0.350326
vt 0.960833 0.693152
vt 0.747500 0.867065
vt 0.669167 0.828587
vt 0.669167 0.867065
vt 0.080833 0.002500
vt 0.002500 0.345326
vt 0.080833 0.345326
vt 0.664167 0.437283
vt 0.335833 0.519239
vt 0.664167 0.519239
vt 0.580833 0.089457
vt 0.502500 0.432283
vt 0.580833 0.432283
vt 0.330833 0.524239
vt 0.002500 0.606196
vt 0.330833 0.606196
vt 0.497500 0.089457
vt 0.419167 0.432283
vt 0.497500 0.432283
vt 0.330833 0.611196
vt 0.002500 0.693152
vt 0.330833 0.693152
vt 0.585833 0.350326
vt 0.664167 0.432283
vt 0.664167 0.350326
vt 0.252500 0.089457
vt 0.330833 0.171413
vt 0.330833 0.089457
vt 0.752500 0.785109
vt 0.747500 0.698152
vt 0.830833 0.785109
vt 0.664167 0.959022
vt 0.997500 0.350326
vt 0.747500 0.828587
vt 0.002500 0.002500
vt 0.335833 0.437283
vt 0.502500 0.089457
vt 0.002500 0.524239
vt 0.419167 0.089457
vt 0.002500 0.611196
vt 0.585833 0.432283
vt 0.252500 0.171413
s 0
usemtl fence_2m_BAKED
f 10/34/3 4/35/3 12/36/3
f 10/34/3 2/54/3 4/35/3
usemtl fence_2m_BAKED
f 3/1/1 2/2/1 1/3/1
f 7/4/1 4/5/1 3/6/1
f 7/7/1 6/8/1 8/9/1
f 6/10/2 13/11/2 14/12/2
f 2/13/2 9/14/2 1/15/2
f 14/16/2 9/17/2 10/18/2
f 5/19/3 15/20/3 13/21/3
f 16/22/4 6/23/4 14/24/4
f 7/25/2 11/26/2 15/27/2
f 12/28/5 8/29/5 16/30/5
f 3/31/4 9/32/4 11/33/4
f 9/37/1 15/38/1 11/39/1
f 16/40/6 10/41/6 12/42/6
f 3/1/1 4/43/1 2/2/1
f 7/4/1 8/44/1 4/5/1
f 7/7/1 5/45/1 6/8/1
f 6/10/2 5/46/2 13/11/2
f 2/13/2 10/47/2 9/14/2
f 14/16/2 13/48/2 9/17/2
f 5/19/3 7/49/3 15/20/3
f 16/22/4 8/50/4 6/23/4
f 7/25/2 3/51/2 11/26/2
f 12/28/5 4/52/5 8/29/5
f 3/31/4 1/53/4 9/32/4
f 9/37/1 13/55/1 15/38/1
f 16/40/6 14/56/6 10/41/6
o Pole_left
v -0.925000 0.000000 -0.049993
v -0.925000 0.000000 -0.056667
v -1.074990 0.000000 -0.049993
v -1.085000 0.000000 -0.056667
v -0.925000 0.000000 0.049993
v -0.925000 0.000000 0.056667
v -1.074990 0.000000 0.049993
v -1.085000 0.000000 0.056667
v -0.925000 1.199990 -0.049993
v -0.925000 1.210000 -0.056667
v -1.074990 1.199990 -0.049993
v -1.085000 1.210000 -0.056667
v -0.925000 1.199990 0.049993
v -0.925000 1.210000 0.056667
v -1.074990 1.199990 0.049993
v -1.085000 1.210000 0.056667
vn -0.0000 -1.0000 -0.0000
vn 1.0000 -0.0000 -0.0000
vn -0.0000 -0.0000 -1.0000
vn -0.0000 -0.0000 1.0000
vn -1.0000 -0.0000 -0.0000
vn -0.0000 1.0000 -0.0000
vt 0.830833 0.698152
vt 0.794167 0.780109
vt 0.830833 0.780109
vt 0.747500 0.823587
vt 0.669167 0.785109
vt 0.669167 0.823587
vt 0.789167 0.780109
vt 0.752500 0.698152
vt 0.752500 0.780109
vt 0.330833 0.736630
vt 0.002500 0.698152
vt 0.002500 0.736630
vt 0.705833 0.693152
vt 0.669167 0.350326
vt 0.669167 0.693152
vt 0.747500 0.780109
vt 0.669167 0.741630
vt 0.669167 0.780109
vt 0.664167 0.002500
vt 0.585833 0.345326
vt 0.664167 0.345326
vt 0.580833 0.002500
vt 0.252500 0.084457
vt 0.580833 0.084457
vt 0.247500 0.002500
vt 0.169167 0.345326
vt 0.247500 0.345326
vt 0.330833 0.437283
vt 0.002500 0.519239
vt 0.330833 0.519239
vt 0.164167 0.002500
vt 0.085833 0.345326
vt 0.164167 0.345326
vt 0.330833 0.350326
vt 0.002500 0.432283
vt 0.330833 0.432283
vt 0.252500 0.176413
vt 0.330833 0.258370
vt 0.330833 0.176413
vt 0.252500 0.263370
vt 0.330833 0.345326
vt 0.330833 0.263370
vt 0.794167 0.698152
vt 0.747500 0.785109
vt 0.789167 0.698152
vt 0.330833 0.698152
vt 0.705833 0.350326
vt 0.747500 0.741630
vt 0.585833 0.002500
vt 0.252500 0.002500
vt 0.169167 0.002500
vt 0.002500 0.437283
vt 0.085833 0.002500
vt 0.002500 0.350326
vt 0.252500 0.258370
vt 0.252500 0.345326
s 0
usemtl fence_2m_BAKED
f 32/78/10 22/79/10 30/80/10
f 32/78/10 24/106/10 22/79/10
usemtl fence_2m_BAKED
f 19/57/7 18/58/7 17/59/7
f 23/60/7 20/61/7 19/62/7
f 23/63/7 22/64/7 24/65/7
f 22/66/8 29/67/8 30/68/8
f 18/69/8 25/70/8 17/71/8
f 30/72/8 25/73/8 26/74/8
f 21/75/9 31/76/9 29/77/9
f 23/81/8 27/82/8 31/83/8
f 28/84/11 24/85/11 32/86/11
f 19/87/10 25/88/10 27/89/10
f 26/90/9 20/91/9 28/92/9
f 25/93/7 31/94/7 27/95/7
f 32/96/12 26/97/12 28/98/12
f 19/57/7 20/99/7 18/58/7
f 23/60/7 24/100/7 20/61/7
f 23/63/7 21/101/7 22/64/7
f 22/66/8 21/102/8 29/67/8
f 18/69/8 26/103/8 25/70/8
f 30/72/8 29/104/8 25/73/8
f 21/75/9 23/105/9 31/76/9
f 23/81/8 19/107/8 27/82/8
f 28/84/11 20/108/11 24/85/11
f 19/87/10 17/109/10 25/88/10
f 26/90/9 18/110/9 20/91/9
f 25/93/7 29/111/7 31/94/7
f 32/96/12 30/112/12 26/97/12
o Hor._Pole
v -1.075000 1.150000 -0.050000
v 1.075000 1.150000 -0.050000
v -1.075000 1.130866 -0.046194
v 1.075000 1.130866 -0.046194
v -1.075000 1.114645 -0.035355
v 1.075000 1.114645 -0.035355
v -1.075000 1.103806 -0.019134
v 1.075000 1.103806 -0.019134
v -1.075000 1.100000 0.000000
v 1.075000 1.100000 0.000000
v -1.075000 1.103806 0.019134
v 1.075000 1.103806 0.019134
v -1.075000 1.114645 0.035355
v 1.075000 1.114645 0.035355
v -1.075000 1.130866 0.046194
v 1.075000 1.130866 0.046194
v -1.075000 1.150000 0.050000
v 1.075000 1.150000 0.050000
v -1.075000 1.169134 0.046194
v 1.075000 1.169134 0.046194
v -1.075000 1.185355 0.035355
v 1.075000 1.185355 0.035355
v -1.075000 1.196194 0.019134
v 1.075000 1.196194 0.019134
v -1.075000 1.200000 0.000000
v 1.075000 1.200000 0.000000
v -1.075000 1.196194 -0.019134
v 1.075000 1.196194 -0.019134
v -1.075000 1.185355 -0.035355
v 1.075000 1.185355 -0.035355
v -1.075000 1.169134 -0.046194
v 1.075000 1.169134 -0.046194
vn -0.0000 -0.0000 -1.0000
vn -0.0000 -0.3827 -0.9239
vn -0.0000 -0.7071 -0.7071
vn -0.0000 -0.9239 -0.3827
vn -0.0000 -1.0000 -0.0000
vn -0.0000 -0.9239 0.3827
vn -0.0000 -0.7071 0.7071
vn -0.0000 -0.3827 0.9239
vn -0.0000 -0.0000 1.0000
vn -0.0000 0.3827 0.9239
vn -0.0000 0.7071 0.7071
vn -0.0000 0.9239 0.3827
vn -0.0000 1.0000 -0.0000
vn -0.0000 0.9239 -0.3827
vn -0.0000 0.7071 -0.7071
vn -0.0000 0.3827 -0.9239
vt 0.830833 0.350326
vt 0.794167 0.693152
vt 0.830833 0.693152
vt 0.664167 0.823587
vt 0.335833 0.785109
vt 0.335833 0.823587
vt 0.872500 0.002500
vt 0.835833 0.345326
vt 0.872500 0.345326
vt 0.330833 0.867065
vt 0.002500 0.828587
vt 0.002500 0.867065
vt 0.872500 0.350326
vt 0.835833 0.693152
vt 0.872500 0.693152
vt 0.664167 0.867065
vt 0.335833 0.828587
vt 0.335833 0.867065
vt 0.914167 0.002500
vt 0.877500 0.345326
vt 0.914167 0.345326
vt 0.330833 0.910544
vt 0.002500 0.872065
vt 0.002500 0.910544
vt 0.914167 0.350326
vt 0.877500 0.693152
vt 0.914167 0.693152
vt 0.664167 0.910544
vt 0.335833 0.872065
vt 0.335833 0.910544
vt 0.955833 0.002500
vt 0.919167 0.345326
vt 0.955833 0.345326
vt 0.330833 0.954022
vt 0.002500 0.915543
vt 0.002500 0.954022
vt 0.955833 0.350326
vt 0.919167 0.693152
vt 0.955833 0.693152
vt 0.664167 0.954022
vt 0.335833 0.915543
vt 0.335833 0.954022
vt 0.997500 0.002500
vt 0.960833 0.345326
vt 0.997500 0.345326
vt 0.330833 0.997500
vt 0.002500 0.959022
vt 0.002500 0.997500
vt 0.794167 0.350326
vt 0.664167 0.785109
vt 0.835833 0.002500
vt 0.330833 0.828587
vt 0.835833 0.350326
vt 0.664167 0.828587
vt 0.877500 0.002500
vt 0.330833 0.872065
vt 0.877500 0.350326
vt 0.664167 0.872065
vt 0.919167 0.002500
vt 0.330833 0.915543
vt 0.919167 0.350326
vt 0.664167 0.915543
vt 0.960833 0.002500
vt 0.330833 0.959022
s 1
usemtl fence_2m_BAKED
f 34/113/13 35/114/14 33/115/13
f 36/116/14 37/117/15 35/118/14
f 38/119/15 39/120/16 37/121/15
f 40/122/16 41/123/17 39/124/16
f 42/125/17 43/126/18 41/127/17
f 44/128/18 45/129/19 43/130/18
f 46/131/19 47/132/20 45/133/19
f 48/134/20 49/135/21 47/136/20
f 50/137/21 51/138/22 49/139/21
f 52/140/22 53/141/23 51/142/22
f 54/143/23 55/144/24 53/145/23
f 56/146/24 57/147/25 55/148/24
f 58/149/25 59/150/26 57/151/25
f 60/152/26 61/153/27 59/154/26
f 62/155/27 63/156/28 61/157/27
f 64/158/28 33/159/13 63/160/28
f 34/113/13 36/161/14 35/114/14
f 36/116/14 38/162/15 37/117/15
f 38/119/15 40/163/16 39/120/16
f 40/122/16 42/164/17 41/123/17
f 42/125/17 44/165/18 43/126/18
f 44/128/18 46/166/19 45/129/19
f 46/131/19 48/167/20 47/132/20
f 48/134/20 50/168/21 49/135/21
f 50/137/21 52/169/22 51/138/22
f 52/140/22 54/170/23 53/141/23
f 54/143/23 56/171/24 55/144/24
f 56/146/24 58/172/25 57/147/25
f 58/149/25 60/173/26 59/150/26
f 60/152/26 62/174/27 61/153/27
f 62/155/27 64/175/28 63/156/28
f 64/158/28 34/176/13 33/159/13
o Hor._Pole.001
v -1.075000 0.550000 -0.050000
v 1.075000 0.550000 -0.050000
v -1.075000 0.530866 -0.046194
v 1.075000 0.530866 -0.046194
v -1.075000 0.514645 -0.035355
v 1.075000 0.514645 -0.035355
v -1.075000 0.503806 -0.019134
v 1.075000 0.503806 -0.019134
v -1.075000 0.500000 0.000000
v 1.075000 0.500000 0.000000
v -1.075000 0.503806 0.019134
v 1.075000 0.503806 0.019134
v -1.075000 0.514645 0.035355
v 1.075000 0.514645 0.035355
v -1.075000 0.530866 0.046194
v 1.075000 0.530866 0.046194
v -1.075000 0.550000 0.050000
v 1.075000 0.550000 0.050000
v -1.075000 0.569134 0.046194
v 1.075000 0.569134 0.046194
v -1.075000 0.585355 0.035355
v 1.075000 0.585355 0.035355
v -1.075000 0.596194 0.019134
v 1.075000 0.596194 0.019134
v -1.075000 0.600000 0.000000
v 1.075000 0.600000 0.000000
v -1.075000 0.596194 -0.019134
v 1.075000 0.596194 -0.019134
v -1.075000 0.585355 -0.035355
v 1.075000 0.585355 -0.035355
v -1.075000 0.569134 -0.046194
v 1.075000 0.569134 -0.046194
vn -0.0000 -0.0000 -1.0000
vn -0.0000 -0.3827 -0.9239
vn -0.0000 -0.7071 -0.7071
vn -0.0000 -0.9239 -0.3827
vn -0.0000 -1.0000 -0.0000
vn -0.0000 -0.9239 0.3827
vn -0.0000 -0.7071 0.7071
vn -0.0000 -0.3827 0.9239
vn -0.0000 -0.0000 1.0000
vn -0.0000 0.3827 0.9239
vn -0.0000 0.7071 0.7071
vn -0.0000 0.9239 0.3827
vn -0.0000 1.0000 -0.0000
vn -0.0000 0.9239 -0.3827
vn -0.0000 0.7071 -0.7071
vn -0.0000 0.3827 -0.9239
vt 0.830833 0.002500
vt 0.794167 0.345326
vt 0.830833 0.345326
vt 0.330833 0.823587
vt 0.002500 0.785109
vt 0.002500 0.823587
vt 0.789167 0.002500
vt 0.752500 0.345326
vt 0.789167 0.345326
vt 0.664167 0.780109
vt 0.335833 0.741630
vt 0.335833 0.780109
vt 0.747500 0.350326
vt 0.710833 0.693152
vt 0.747500 0.693152
vt 0.330833 0.780109
vt 0.002500 0.741630
vt 0.002500 0.780109
vt 0.747500 0.002500
vt 0.710833 0.345326
vt 0.747500 0.345326
vt 0.664167 0.736630
vt 0.335833 0.698152
vt 0.335833 0.736630
vt 0.705833 0.002500
vt 0.669167 0.345326
vt 0.705833 0.345326
vt 0.664167 0.693152
vt 0.335833 0.654674
vt 0.335833 0.693152
vt 0.372500 0.089457
vt 0.335833 0.432283
vt 0.372500 0.432283
vt 0.664167 0.606196
vt 0.335833 0.567717
vt 0.335833 0.606196
vt 0.414167 0.089457
vt 0.377500 0.432283
vt 0.414167 0.432283
vt 0.664167 0.562717
vt 0.335833 0.524239
vt 0.335833 0.562717
vt 0.789167 0.350326
vt 0.752500 0.693152
vt 0.789167 0.693152
vt 0.664167 0.649674
vt 0.335833 0.611196
vt 0.335833 0.649674
vt 0.794167 0.002500
vt 0.330833 0.785109
vt 0.752500 0.002500
vt 0.664167 0.741630
vt 0.710833 0.350326
vt 0.330833 0.741630
vt 0.710833 0.002500
vt 0.664167 0.698152
vt 0.669167 0.002500
vt 0.664167 0.654674
vt 0.335833 0.089457
vt 0.664167 0.567717
vt 0.377500 0.089457
vt 0.664167 0.524239
vt 0.752500 0.350326
vt 0.664167 0.611196
s 1
usemtl fence_2m_BAKED
f 66/177/29 67/178/30 65/179/29
f 68/180/30 69/181/31 67/182/30
f 70/183/31 71/184/32 69/185/31
f 72/186/32 73/187/33 71/188/32
f 74/189/33 75/190/34 73/191/33
f 76/192/34 77/193/35 75/194/34
f 78/195/35 79/196/36 77/197/35
f 80/198/36 81/199/37 79/200/36
f 82/201/37 83/202/38 81/203/37
f 84/204/38 85/205/39 83/206/38
f 86/207/39 87/208/40 85/209/39
f 88/210/40 89/211/41 87/212/40
f 90/213/41 91/214/42 89/215/41
f 92/216/42 93/217/43 91/218/42
f 94/219/43 95/220/44 93/221/43
f 96/222/44 65/223/29 95/224/44
f 66/177/29 68/225/30 67/178/30
f 68/180/30 70/226/31 69/181/31
f 70/183/31 72/227/32 71/184/32
f 72/186/32 74/228/33 73/187/33
f 74/189/33 76/229/34 75/190/34
f 76/192/34 78/230/35 77/193/35
f 78/195/35 80/231/36 79/196/36
f 80/198/36 82/232/37 81/199/37
f 82/201/37 84/233/38 83/202/38
f 84/204/38 86/234/39 85/205/39
f 86/207/39 88/235/40 87/208/40
f 88/210/40 90/236/41 89/211/41
f 90/213/41 92/237/42 91/214/42
f 92/216/42 94/238/43 93/217/43
f 94/219/43 96/239/44 95/220/44
f 96/222/44 66/240/29 65/223/29
